<svg xmlns="http://www.w3.org/2000/svg" width="1109.158" height="582.867" viewBox="0 0 1109.158 582.867">
  <path id="us" data-name="Path 1246" d="M345.724,487.506c5.143-6.847,15.633-1.656,20.319-8.5,2-3.076,2.9-7.32,4.244-10.633,1.562-3.549,4.023-7.556,4.244-11.579,0-5.663-4.244-14.166-1.341-19.372.9-1.641,2.445-2.366,3.786-3.549,2.24-2.366,1.783-3.786,2.9-6.61,1.578-4.259,6.042-5.443,6.7-10.159a34.993,34.993,0,0,0-.237-9.686,11.513,11.513,0,0,0-1.562-4.717c-1.783-2.366-1.783-1.183-4.244-1.42-3.8-.457-4.922-2.587-8.045-4.953a20.675,20.675,0,0,0-10.932-4.023l-4.023-.71a22.8,22.8,0,0,0-4.023,0c-3.565-.473-2.461-1.4-4.464-3.549a16.131,16.131,0,0,0-6.7-3.77c-3.124-.473-3.344,1.183-5.805,1.4-.221-1.4-.221-3.06-1.12-4.244l-.221-.71c-2.24-2.587-3.8-1.183-4.7-5.19-.221-1.183.221-2.6,0-3.549-.663-1.42-2.24-1.42-2.682-2.84-.9-2.366.442-4.969-.9-7.541-1.12-2.146-4.244-4.5-6.247-5.679-7.146-4.48-15.192.947-20.1-6.61-2.24-3.3-3.124-4.5-6.263-6.389-2.24-1.42-4.244-4.023-6.247-5.9-3.124-3.06-3.124-4.244-7.367-3.06a15.287,15.287,0,0,1-10.27,0,34.959,34.959,0,0,1-5.143-1.42c-1.578-.726-3.344-2.6-5.143-3.076-3.124-.457-4.685,3.549-7.809,2.366.221-.947,2.682-3.3,1.562-4.48-.678-.947-3.565.947-4.244,1.183-3.124,1.656-7.809,2.13-10.27,4.023-3.124,2.366-2,8.961-5.364,9.907-3.124.962-2.461-1.877-3.8-3.06-1.562-1.183-2.9-1.183-5.127-.694v.457c-2.9-1.42-5.127,2.366-8.266,1.656-2.461-.726-2.24-1.656-4.023-3.549-.9-1.183-2.682-2.114-3.581-3.55-1.562-2.84-.442-6.626.678-9.449,1.562-4.259,2.461-5.9.9-10.412-.9-2.114,0-2.366-2.682-3.549a9.186,9.186,0,0,0-5.584-.237c-2.019.237-7.588,3.313-9.166.237-1.562-3.06,4.244-11.816,5.143-14.876.678-1.909,3.8-6.626,2.682-8.5-1.12-2.114-7.825-.947-9.386,0-3.581,1.877-2.461,5.19-4.023,8.266-1.341,2.6-5.143,4.48-7.588,5.206-2.461.947-7.367-.237-9.844-1.42-3.786-2.366-2.682-5.9-3.786-9.686-1.12-4.259-3.581-6.847-2.461-11.579.9-3.549,3.581-6.137,4.244-9.923.678-4.023.458-6.389,3.581-9.213a49.82,49.82,0,0,1,8.266-5.916c4.464-3.06,6.689-1.183,11.611-.71,2.24.237,5.364.71,7.367-.947,1.341-1.183.663-2.366,2.461-3.313,1.578-.947,8.945-1.183,10.948-.237,1.783.694,2.461,2.366,4.007,2.824,1.578.473,2-.947,3.8.726,4.023,3.55-1.562,17.716,6.042,18.189,7.146.457,4.244-14.182,3.344-17.732-2.682-10.4,3.344-15.113,12.068-18.662,3.8-1.656,7.809-3.55,10.27-7.083,2.9-4.259,2.224-6.626,3.124-11.106,1.12-4.969,3.36-.947,6.484-3.549s5.364-6.847,7.825-9.923l.221-.473c2.461-2.84,4.7-.71,7.825-1.42,3.786-1.183,2.461-4.48,4.007-7.793,2-4.007,4.922-3.77,8.5-4.954,3.124-1.183,5.585-3.313,8.929-4.259,1.341-.694,8.266-2.366,4.7,1.656-.9,1.183-9.386,2.13-3.8,4.954,3.344,1.42,6.263-3.55,9.166-4.259,2-.694,7.809-.694,6.247-4.717-1.12-2.824-6.247-.473-7.825-3.3-2.24-4.023,3.8-5.206,4.7-7.556,3.124-7.32-17.211,1.893-18.315.947-2.682-2.366,4.023-6.61,5.805-7.32,3.124-.947,6.484.237,9.828-.71,3.581-.947,6.042-1.656,10.065-1.42,5.143.71,6.484,1.656,11.39-1.641,4.244-2.84,13.851-2.13,13.63-10.159,0-3.06-3.36-6.373-5.585-8.266-3.565-2.824-4.464-2.6-4.464-7.793,0-3.313.9-7.556-1.341-9.686-4.023-3.313-7.367,1.183-11.169,1.656a7.77,7.77,0,0,1-4.023-.237c-2.9-2.366.221-1.893.457-4.5,0-1.893-3.124-7.32-4.48-8.266-1.12-.947-13.173-2.13-15.413-.71-4.023,2.366-.9,7.793-3.8,10.4-2.019,2.13-8.046-.71-5.805,5.9.883,3.076,4.259,5.206,1.12,8.74-5.379,5.9-13.188.237-14.971,9.923-.442,2.84-.663,7.556-3.344,9.213-2.24,1.42-6.484-.237-7.588-2.6-2.461-5.663,4.023-5.663,4.685-9.213.9-4.717-5.364-2.6-7.809-3.076-2.682-.71-6.7-3.549-8.708-5.427-1.562-1.42-1.341-3.549-3.8-3.786-1.783,0-3.581,2.6-6.026,1.656,0-3.77,3.344-6.373-1.8-7.556a7.929,7.929,0,0,1,.9-1.893l-.663.473c1.12-2.366.221-4.48,2.24-6.137,1.341-1.183,2.9-.237,4.464-.947,3.344-1.656,4.7-4.717,8.945-5.427,4.007-.71,6.468-2.366,10.27-4.717,3.36-2.13,6.7-2.6,10.286-4.5,2.682-1.656,4.922-5.427,7.588-6.373,3.124-1.183,6.925,1.42,10.286.473,2.461-.71,8.487-5.663,9.828-7.793,3.124-5.206-2.9-3.313-5.805-2.84-3.8.71-4.464,1.656-7.588,3.786-5.143,3.786-3.344-.473-5.364-3.313-1.341-1.893-3.124-.947-3.8-3.313-.221-1.42,1.341-2.824.9-4.259-1.12-4.48-4.7-1.183-6.468.71-.457.237-.221,1.656-.678,2.13-1.12.947-2.24,0-3.344.473-2.019,1.183-1.578,1.893-2.445,4.023-2.019,4.954-3.36,3.3-7.825,4.244-2.224.473-2.445,1.183-5.143,1.183-2.682-.237-5.585-1.42-8.266-.947-2.019.473-2.682,2.13-5.143,1.42-1.341-.473-2.445-1.893-4.007-2.6-7.6-3.076-15.87,7.32-24.121,2.6-2.9-1.893-2.9-4.733-6.7-5.9a25.033,25.033,0,0,0-6.042-1.42c-2.887-.473-6.925.473-9.607-.473s-2.9-3.076-6.484-3.313a26.107,26.107,0,0,0-9.607.71c-4.244,1.656-6.042,3.076-10.506,3.549-4.244.473-5.585,1.893-9.607.473-1.12-.473-4.244-.947-5.364-1.656-1.341-1.183,0-2.366-2.24-3.313-2.461-.947-7.367,0-9.828,0-4.023,0-8.266.237-12.052-.947-3.124-1.183-5.364-2.366-8.945-2.13l.221.237c-3.786.473-6.925,1.656-10.712,1.893-3.8,0-6.925,0-10.506,1.42-3.565,1.42-7.588,2.84-11.39,4.007-2.019.71-10.932,1.183-11.611,2.6-1.562,2.824,4.464,4.259,4.464,6.373,0,1.893-6.026,4.48-7.588,4.023-1.12-.237-2.224-2.13-4.244-2.6-2.24-.237-3.124.237-4.922,1.183-1.562.71-5.143,3.076-5.585,4.969,3.344,1.42,6.7.71,10.27.947,7.588.71-.678,3.313-3.581,4.5-6.484,2.6-21.9,2.84-23.458,12.526-1.341,6.61,4.244.473,6.026,1.893,2.019,1.656-6.026,4.5,0,6.137,1.562.237,9.386-3.3,6.026,1.183-1.341,2.13-7.146,2.6-9.386,3.786-1.12.473-7.825,3.549-7.825,5.206,0,4.007,9.386-1.183,10.948-1.656,4.906-1.183,7.367-1.893,11.39-5.206,3.8-3.3,8.724-4.007,12.51-6.847,3.36-2.366,5.805-4.969,9.607-6.137,3.8-1.42,4.464,0,1.562,2.6-1.783,1.42-7.146,3.549-3.124,4.969,3.124.947,7.146-3.549,9.386-4.969,3.344-2.13,5.585-4.023,9.607-2.6,3.581,1.183,7.146,2.13,10.727,3.313,7.146,2.6,11.169,10.869,10.27,18.9-.442,3.313-2.9,6.61-2.682,9.923.442,3.313,3.786,5.679,5.364,8.5.9,1.42,3.786,9.213,1.783,10.4-2.461,1.183-3.124-6.626-4.464-7.556-3.124-1.893-4.906,1.42-3.565,4.023,1.562,3.549,4.023,2.824,2.24,7.556a73.939,73.939,0,0,1-5.143,9.45c-2.24,4.023-5.805,5.206-8.487,8.5-2.9,3.313-.457,7.32-2.24,10.869-1.12,2.6-5.143,3.076-5.585,6.389-.221,2.114,1.783,6.137,2.461,8.5a38.441,38.441,0,0,1,.663,7.083l-.221-.947c.221,2.114-.663,6.847.678,8.266.9.947,2.9.694,3.786,1.183,2,1.42,1.783,2.114,2.682,4.007,1.12,3.313,2.9,6.137,2.461,9.686-.221,1.183-1.12,3.076-.883,4.259.442,2.366,1.783,1.641,2.461,3.3,1.783,4.023-1.562,6.137-1.341,9.213.442,3.076,3.565,2.6,5.127,4.023,1.783,1.42,1.562,2.366,2.24,4.717.442,2.13,2.24,7.809,5.364,8.03,4.244,0,0-5.663-.678-7.541-1.12-2.6-.9-5.206-1.562-7.809-.9-2.824-3.124-4.969-3.8-7.793-.221-1.42.221-2.84,0-4.023-.678-1.877-2.019-2.366-2.682-4.023-.883-1.877-1.12-4.717,1.578-5.19l.442-.237c4.7-.71,5.143,3.3,5.143,6.847,0,3.786.457,5.206,2.461,8.74,2,3.06,2.224,6.389,3.565,9.45,1.783,3.786,5.143,6.137,7.146,9.923,1.341,2.6,4.244,6.373,4.464,9.45.221,3.549-2.9,5.19-1.562,8.74,1.341,4.007,8.03,5.9,11.169,8.961,3.581,3.549,7.367,3.786,11.847,5.427,4.685,1.42,6.263,1.656,10.506.473,4.007-.947,8.487-.237,10.712,3.3.663,1.42-.221,2.366,1.12,3.786.9.947,2.9,1.656,4.244,2.114,3.344,1.909,6.468,2.145,9.828,3.329,3.581,1.183,2,3.549,4.7,5.427,1.12.726,2.9-.457,4.023.726,2,2.366-.678,1.877-1.12,3.55-1.12,4.938,2.24,5.427,5.364,7.793,2.682,1.877,4.685,5.9,8.266,6.847,4.244.962,7.588-7.32,10.27-5.19l-.442-.473c2.224,1.893,3.344,6.389,4.244,8.992,1.12,2.824,1.12,5.19.9,8.266-.221,4.717-.678,7.793-4.023,10.869a11.693,11.693,0,0,0-3.344,3.3c-.221.457.442,1.641,0,2.114-.678.947-1.783.71-2.24,1.42-3.581,3.786-6.263,9.686-3.36,15.113a12.614,12.614,0,0,0,2.24,2.6c.442,2.84-.457,1.656-2.019,3.076-2.224,2.13-2.224.221-2.461,3.77a18.953,18.953,0,0,0,.457,4.969c.663,4.717,3.565,3.313,5.805,7.083,2.9,4.5,3.124,8.992,6.925,13,6.263,6.61,6.7,18.9,14.734,24.326,4.023,2.6,7.809,1.893,11.39,5.9,2,2.13,6.026,4.5,6.925,7.083.663,2.366.221,6.373.457,8.74,0,3.076.221,6.137.221,9.213v3.076L262,484.9c-.221,6.137,2.019,11.579,2.682,17.479.678,6.373-.663,13.236.221,19.846a81.779,81.779,0,0,1,.9,13c0,4.007-2.019,7.32-1.562,10.869.221,3.55,2.666,6.61,3.124,10.16.221,2.13.221,5.206,1.341,7.083,1.12,2.13,1.341,1.183,2.9,2.366,6.263,4.969,5.364,17.243,8.708,24.326,1.341,3.313,1.562,5.9,2.461,8.976,1.12,3.786,4.906,7.556,7.146,11.106s4.244,5.427,8.266,3.786c1.562-.473,1.783-2.84,4.244-1.42,1.578.946,1.783,3.549,2.9,4.953,1.8,2.84,3.8,3.313,6.925,3.076,1.341,0,2.9.71,3.565-.71,1.12-2.84-1.783-2.13-3.124-2.84-2.9-1.42-5.364-2.84-7.146-5.9-.9-1.656-1.12-3.313-2.24-4.733-1.562-2.366-2.445-2.13-2.445-5.427.221-7.556,8.929-10.4.663-15.349-2.9-1.893-5.127-3.313-2.461-6.847.9-1.42,2.682-1.42,3.344-3.076.457-1.183-.442-3.076,0-4.5,1.12-4.023,4.023-3.549-.221-6.373-3.124-1.893-5.364-4.733,0-4.259,3.344.237,4.244,1.656,4.464-3.313,0-3.77-2.445-7.083,2.9-7.32,3.581-.237,6.925,1.893,9.828-2.366,1.783-2.366,1.12-6.61,0-9.213-1.562-3.55-6.026-6.61.221-5.9,2.682.237,4.244,1.42,7.367,0,3.565-1.183,2.224-1.183,3.124-4.023.442-1.183.663-2.13,1.12-3.3.442-.947,1.562-1.893,2.019-3.786.9-4.244,1.562-6.847,4.464-10.159,4.464-4.5,6.484-7.083,5.584-13.945-.663-6.137-.663-6.373,3.581-10.4" transform="translate(-35.01 -37.82)"/>
  <path id="Path_1250" data-name="Path 1250" d="M339.114,112.207c-.552,0-1.672-.237-1.783-.82-.347-1.309,1.341-1.073,1.672-1.767,1.23-2.493-3.9-2.493-5.143-1.656-3.013,1.656-3.565,8.266-2.351,11.216,1.01,2.493,4.354,3.786,6.247,5.08,1.01.82,3.124,3.9,2.114,5.316s-3.234-.237-4.354,1.294c-1.23,1.42-1.8,4.37-.331,5.553.663.584,1.909,0,1.672,1.42-.11,1.057-1.672.947-2.351,1.294-1.451.473-2.792,1.656-2.224,3.66.9,3.076,3.565-.71,5.143-1.309,2.571-1.057,4.575.836,6.925.473,1.341-.126,1.562-1.183,2.461-1.656.9-.584,1.783-.11,2.682-.347,2.24-.584,1.01-2.477,2.24-4.259.552-.82,1.672-.82,1.783-2s-1.01-2.24-1.783-2.84c-.883-.71-2-.947-2.792-1.767-1.01-.947-1.451-2.366-2.224-3.549-1.23-1.893-4.7-3.66-5.032-6.137-.457-2.95,2.445-1.893,3.344-3.786,1.893-3.9-4.023-3.3-5.585-3.3" transform="translate(135.885 -19.693)"/>
  <path id="Path_1251" data-name="Path 1251" d="M330.077,116.874c-2.13.947-1.893,3.076-4.117,3.423-2.13.347-3.8.126-3.8,3.076,0,1.767,2.351,2.6,1.783,4.259-.568,1.767-3.124,1.057-2.682,3.66.789,4.843,6.7-.237,8.708-.71,1.8-.347,3.471.126,4.591-2,.9-1.656-.347-3.3.221-5.08.9-2.6,2.792-2.713.678-5.427-1.909-2.382-2.9-2.256-5.379-1.2" transform="translate(130.282 -14.674)"/>
  <path id="Path_1252" data-name="Path 1252" d="M360.9,154.8c-3.124,0-2.792,2.493-3.013,4.969-.221,2.713-.331,4.717,3.013,4.606,3.234-.237,3.565-2.256,3.565-5.206,0-2.366-.11-4.606-3.124-4.37" transform="translate(151.411 7.634)"/>
  <path id="Path_1253" data-name="Path 1253" d="M359.907,150.587c-3.455.473-.552,5.316,2.24,3.676,2-1.309.111-4.37-2-3.786" transform="translate(151.723 5.107)"/>
  <path id="Path_1254" data-name="Path 1254" d="M373.9,162.905c-1.909,0-6.925-1.294-6.7,1.893.111,1.546.9,1.641,2.114,2.13,1.672.6,1.341.82,2.461,2,4.464,5.19,6.373-6.736,2-6.137" transform="translate(156.837 12.178)"/>
  <path id="Path_1255" data-name="Path 1255" d="M413.673,171.134c-1.23-.126-3.013,0-3.344,1.53-.442,2.366,2.13,1.656,3.455,2,1.246.347,2.682,1.641,3.013-.836.347-1.893-1.341-2.13-2.682-2.6" transform="translate(181.725 17.059)"/>
  <path id="Path_1256" data-name="Path 1256" d="M526.579,243.41c-3.691.111-2.24,6.137-2.461,8.5-.11,1.656-.773,2.95.347,4.244a3.591,3.591,0,0,0,3.786,1.309,11.32,11.32,0,0,0,3.36-2.84c1.451-1.53,1.12-2.824.221-4.591-1.01-2.145-2.682-6.515-5.253-6.736" transform="translate(247.303 58.76)"/>
  <path id="Path_1257" data-name="Path 1257" d="M580.078,267.5a33.437,33.437,0,0,1-5.7-5.774c-1.12-1.546-1.909-3.676-3.124-5.1-1.562-2-9.607-3.77-10.948-1.183-1.783,3.676,4.8,6.042,6.594,7.446,2.571,2.13,5.916,5.427,6.815,8.85.883,3.3-1.01,5.19,1.23,8.266,2.445,3.187,5.032,6.01,7.146,9.56,2.13,3.549,4.685,7.556,7.809,10.175,1.23,1.057,4.133,3.408,6.042,2.824,2.114-.71,2.335-3.3,2.335-5.19,0-2.713,1.231-7.919-.221-10.175-1.451-2.224-4.922-1.877-6.247-4.244-1.341-2.366,0-4.969-2.114-7.209-2.792-2.824-6.247-4.827-9.055-7.683-.221-.237-.552-.584-.773-.836" transform="translate(268.201 65.026)"/>
  <path id="Path_1258" data-name="Path 1258" d="M603.409,288.018c-2.13-.363-3.124,1.183-5.253,1.183-2,0-4.575-1.893-6.468-2.713-1.909-.836-3.344-1.53-5.253-.457-1.01.584-3.124,2.24-2.792,3.66.568,2.114,4.812,2.114,6.373,3.076,2.792,1.546,4.354,1.057,7.477,1.183,2.572.126,3.692,1.767,5.916,2.587,2.9,1.073,6.484.6,9.5,1.073,1.672.237,7.036,1.183,6.247-2.114-.552-2.366-3.912-1.42-5.253-2.713-.789-.71-.789-2.24-1.562-2.95a7.418,7.418,0,0,0-3.912-.947c-1.451,0-3.471.836-4.591-.82" transform="translate(281.832 83.122)"/>
  <path id="Path_1259" data-name="Path 1259" d="M625.289,254.248c-1.8-.836-3.234-3.187-5.032-3.786-2.666-.947-3.676,3.06-4.8,4.969-2.019,3.66-6.042,4.48-8.724,7.32-2.019,1.877-3.124,4.354-5.253,6.247-1.562,1.183-2.792,2.366-4.8,2.13-2.571-.347-3.234-.947-4.48,2.019-1.23,2.713-1.562,6.373.126,8.85,1.01,1.42,2.682,2.256,3.455,3.66.9,1.546.331,3.076.678,4.606.552,3.549,2.682,2.477,4.906,3.3,1.23.473,2.019,1.767,3.124,2.256,1.672.694,1.783.11,3.013-.473,1.672-.82,2.445-.458,4.244.726,1.909,1.294,3.912,2.824,6.026,1.057,1.909-1.641,1.451-5.08,1.451-7.43,0-2.839.457-4.133,2.571-5.79a5.217,5.217,0,0,0,2.682-4.133c.347-2.366.347-2.366,2.24-3.187,1.23-.473,1.451-.11,1.783-1.783.331-1.4-.331-2.95-.9-4.354-1.12-2.729-3.786-6.026-1.783-9.1,1.12-1.53,3.692-2,3.471-4.5-.221-2.366-2.335-1.767-3.912-2.477" transform="translate(286.202 62.814)"/>
  <path id="Path_1260" data-name="Path 1260" d="M592.686,214.519c-2.35-.6-5.474-1.4-5.584,1.893-.111,2.824,1.909,4.133,4.48,4.133,1.341,0,3.786-1.309,4.133-2.84a2.67,2.67,0,0,0-2.9-3.06" transform="translate(283.847 41.823)"/>
  <path id="Path_1261" data-name="Path 1261" d="M616.977,199.22c-3.344-.694-2.792,3.187-4.133,4.969-1.01,1.183-2.571.947-1.893,2.95.331,1.183,1.893,2.019,2.682,3.076.773,1.183,1.451,2.477,3.234,1.4,1.672-.947,1.12-3.408,1.231-5.08.221-3.187,1.562-4.244-.678-6.973" transform="translate(297.528 33.254)"/>
  <path id="Path_1262" data-name="Path 1262" d="M649.909,154.587c-2.24-.237-2.351,2.366-1.688,3.9,1.01,2.24,2.13,3.187,2.13,5.79,0,2.13.11,4.843-1.231,6.72-1.341,2-4.133,2.256-5.364,4.37-1.341,2.493-.11,2.95-3.013,3.549a32.008,32.008,0,0,1-5.916.836c-2.682.126-4.354,1.767-4.906,4.48-.11.726.221,2.13-.221,2.729-.568,1.057-1.23.221-2,.71-1.562.836-2,3.187-1.23,4.843,1.12,2.13,3.471,2.13,4.591,4.37.9,2.13,2.445,3.549,3.786.473,1.12-2.493-.773-6.5,2.571-7.683.9-.347,1.893.11,2.792-.347,1.341-.82,1.12-2.13,1.893-3.313,1.909-3.06,3.234.126,5.364.584a3.2,3.2,0,0,0,2.682-.82,35.692,35.692,0,0,1,5.932-3.313,4.15,4.15,0,0,0,3.234-4.244,35.592,35.592,0,0,0-1.01-7.683c-.347-1.183-.789-2.366-1.01-3.549-.331-1.893.11-3.786-.221-5.679-.458-2.587-4.591-6.5-7.146-6.957" transform="translate(306.369 7.387)"/>
  <path id="Path_1263" data-name="Path 1263" d="M643.277,145.715c-2-.947-6.373-4.133-5.916.363.221,2.13,1.783,3.786.111,5.553-.9.82-2.13.347-2.019,2.24.11,1.656,1.783,2.256,2.9,3.076,1.01.584,1.909,1.53,3.234.947.789-.473,1.01-1.767,1.782-2.13,2.019-.836,3.455,2.13,5.474.947.678-.473.9-1.656,1.562-2.256.678-.457,1.672-.347,2.24-.947,1.451-1.183.884-3.187-.221-4.48-1.783-2.366-3.234-1.183-5.474-1.767-1.23-.347-2.019-1.42-3.344-1.53" transform="translate(311.77 1.256)"/>
  <path id="Path_1264" data-name="Path 1264" d="M630.817,124.961c-.9-.82-6.137-6.373-7.036-3.66-.331,1.309,2.13,2.95,2.9,3.66a14.158,14.158,0,0,1,2.351,3.313,21.52,21.52,0,0,1,2.682,8.5c.331,3.06,2.792,4.606,4.023,7.194,1.01,2.366,1.562,5.9,3.8,7.446,2.13,1.4,3.581.473,3.691-2,.11-2.95-2.019-3.549-3.013-5.79-.773-2.019.221-4.37-.663-6.247-.883-2.019-3.581-2.366-4.685-4.133-1.01-1.53-.442-3.423-1.12-5.08a10.159,10.159,0,0,0-2.9-3.313" transform="translate(305.016 -12.128)"/>
  <path id="Path_1265" data-name="Path 1265" d="M324.36,88.991c-1.909-.473-3.8.947-5.711.836a59,59,0,0,0-6.578.82c-3.013.237-6.247-4.969-8.929-.363-1.451,2.6,1.01,1.767,2.351,2.713,1.783,1.294.11,2.587.442,4.48.678,3.187,4.464,2.13,6.594,2.13,2,.126,3.344,2.477,5.364,1.183,1.12-.71,1.672-2.13,2.887-2.824a19.408,19.408,0,0,1,4.244-1.183c1.562-.363,4.811-1.767,5.805-3.313,2-3.187-3.912-6.373-6.468-4.606" transform="translate(119.593 -30.726)"/>
  <path id="Path_1266" data-name="Path 1266" d="M462.367,304.182c-4.685,0-6.026,11.327-10.712,13.693-2.682,1.183-4.685.473-7.146,2.366-3.124,2.13-3.565,4.5-3.565,8.266,0,4.259.9,8.046-1.12,11.579-2.019,3.77-4.244,5.9-3.124,10.633,1.562,7.083,5.364,15.586,12.731,9.213,2.224-1.893,2.666-3.076,3.344-5.9.9-3.786,2.445-5.663,4.464-9.213,2.9-5.206,1.562-11.816,3.581-17.495,1.12-2.824,1.562-6.847,3.124-9.213,1.341-2.366,3.124-.947,2.9-4.969-.221-2.6-1.12-8.976-3.8-9.213" transform="translate(196.811 93.776)"/>
  <path id="Path_1267" data-name="Path 1267" d="M677.988,279.451c5.584,2.13,11.169.71,15.413,5.916,2.019,2.824,2.24,5.663,5.584,7.3,1.783.962,1.877.647,4.007,2.145,3.5,2.445.6,6.925-.663,6.925l-.237-.079c1.846,2.3,14.072,11.816,9.828,13.472-1.12.458-2.461-1.42-3.581-1.656-1.341,0-2.24,1.183-3.123.946-3.344,0-4.906-3.06-6.484-5.9-1.562-2.824-2.682-6.373-6.7-6.137-4.244.473-4.7,5.916-8.046,7.083a18.717,18.717,0,0,1-5.143,0c-1.783-.71-1.562-2.13-2.666-3.06-3.581-3.3-6.484,1.656-9.386,0-4.023-2.366,2.224-4.717,2.9-6.389,1.562-3.77-2.24-6.373-4.48-8.03a27.707,27.707,0,0,0-9.828-4.969c-3.124-.71-6.468.947-7.367-2.13-1.341-4.969,3.123-3.3,4.243-5.206,1.562-2.824-5.584-1.183-7.146-3.06-4.464-4.717,5.585-8.5,8.945-4.969,4.007,4.244-.678,17.716,8.03,7.572,5.805-6.389,9.386-3.786,15.633,0" transform="translate(316.703 74.336)"/>
  <path id="au" data-name="Path 1268" d="M712.31,300.431c-4.922,2.587-5.821,13.693-7.146,18.662-.678,3.06-1.783,7.32-4.922,8.03-4.244.947-6.925-3.549-9.607-5.9-2.445-2.114-5.805-4.007-4.244-8.03.9-2.366,5.143-4.733,4.685-7.572-.663-3.549-6.484-1.183-8.929-1.877-2.445-.726-4.464-4.023-7.146-1.893-.9.726.221,2.6-.663,3.313-.883.947-1.783,0-2.682.221-2.9.726-3.581,0-5.584,3.549s-2.682,11.579-7.825,7.32c-2.019-1.641-1.12-3.3-4.023-3.77-2.682-.473-4.685,1.656-6.247,3.313-1.562,1.641-3.344,2.824-4.906,4.244-1.562,1.893-1.783,4.5-2.9,6.389-5.821-5.443-5.821,5.19-9.165,8.976-2.9,3.076-4.244,3.55-8.266,3.786-4.464.237-5.805,3.076-9.828,3.549-6.026.473-7.146-.71-9.386,5.206-1.12,3.06-3.8,5.427-4.922,8.5-.442,1.877.221,3.549,0,5.427-.442,1.893-1.12,2.366-2.019,4.023-2.445,4.244-.442,5.427.458,10.159.442,3.076-.221,6.373.221,9.449.221,2.13,2.224,5.19,1.783,7.556-.9,3.549-6.247,3.076-6.7,7.809-.662,9.686,14.734.237,18.331.457,3.345.237,6.247,1.893,9.607.71,4.023-1.183,6.042-4.259,10.506-5.206,9.386-2.13,16.3-12.052,26.582-5.663a48.4,48.4,0,0,1,5.364,4.244c2.019,1.893.9,2.6,1.357,4.969,1.783,7.556,4.906-1.183,8.708,1.183,1.12.947,1.783,8.5,2.24,10.159.678,4.244-2.019,7.32,2.682,8.74,2.019.473,4.906.237,6.925.473.678,0,1.783.71,2.461.473.883-.237,1.341-1.656,1.783-1.656,3.36-.71,6.042,1.893,9.608,0,1.562-.71,2.461-1.893,4.244-2.366,2.24-.473,3.581.473,5.805-.71,5.805-2.824,2.445-7.556,6.484-11.343,1.562-1.656,4.922-2.366,6.026-4.48.9-2.13-.442-3.313,1.341-5.443,3.123-4.007,6.026-3.549,7.825-8.5,2.9-8.266,9.386-12.762,8.929-22.685-.221-5.9-3.565-6.61-5.584-11.327-.678-1.42-.221-3.313-.9-4.5-1.12-2.366-2.445-2.366-3.565-5.19-.458-1.656-.458-3.786-1.341-5.443-1.12-1.877-3.344-3.06-4.685-4.717-3.123-3.549-2.019-7.793-2.461-12.51-.237-1.42,0-4.969-.9-6.389-1.12-1.877-3.8-1.656-4.922-3.549-1.562-2.6,1.12-9.686-1.562-10.4" transform="translate(286.861 91.628)"/>
  <path id="Path_1269" data-name="Path 1269" d="M655.843,383.292c-2.24,0-3.565-2.366-5.584-.473-1.12,1.183-.457,4.5-.9,6.137-.9,3.076-4.464,8.976,1.783,6.137,1.12-.473,2.019-1.893,2.9-2.366,1.12-.473,2.682,0,3.581-.473,1.562-.947,2.9-3.786,3.8-5.663,2-5.19-1.341-3.076-4.922-3.076" transform="translate(318.75 138.915)"/>
  <path id="Path_1270" data-name="Path 1270" d="M716.411,374.941c-3.124-.947,1.341-9.213-3.565-9.449-3.8-.237-1.578,10.4-2.24,12.51-1.341,4.48-7.367,3.549-8.487,7.32-.663,2.84,2.019,2.366,2.461,4.5.221,1.656-1.341,2.84-1.341,4.5,6.925,2.6,6.925-6.847,12.51-8.5,2.24-.71,7.367-1.656,6.7-5.679-.457-2.13-2.682-1.656-4.244-1.656,0-1.42,0-2.84-1.12-3.534" transform="translate(350.217 129.329)"/>
  <path id="Path_1271" data-name="Path 1271" d="M712.331,383.335c-7.588-2.84-8.945,7.083-14.75,10.159-3.581,1.893-6.925.473-10.711,3.076-3.123,2.366-6.484,4.5-9.607,6.61-3.786,2.13-4.244,3.549.237,4.023,4.685.473,6.689,0,10.27-3.313,1.562-1.42,3.36-3.549,5.143-4.5,2-1.42,2.9-.947,4.922-1.42,3.345-.71,5.364-3.313,8.487-4.953,1.578-.947,12.731-8.74,6.484-9.686" transform="translate(334.199 139.345)"/>
  <path id="Path_1272" data-name="Path 1272" d="M621.545,234.106c.663-5.206,3.344-8.266,1.341-12.762-1.12-2.366-.678-3.3-3.124-3.77A3.608,3.608,0,0,0,615.3,220.4c-.457,1.893,1.12,3.786.221,5.9-.9,2.6-3.124,3.313-1.8,6.389a24.49,24.49,0,0,0,5.584,5.206c2.24.694,4.685-.473,2.461-3.076" transform="translate(298.986 43.848)"/>
  <path id="Path_1273" data-name="Path 1273" d="M634.266,265.325c-3.581,2.84-8.266,0-12.068,1.183-2.445.947-8.708,7.32-3.123,6.389,2.24-.473,2.682-3.076,5.364-2.84,3.123.237,4.48,3.076,8.045,1.656a18.8,18.8,0,0,0,4.465-3.076c1.12-1.877.457-5.663-2.224-3.549" transform="translate(301.014 70.983)"/>
  <path id="Path_1274" data-name="Path 1274" d="M621.153,280.271c3.565-.237,1.562,6.862,5.143,7.809,5.584,1.641,2-5.206,1.341-7.083a13.516,13.516,0,0,1-.442-4.259c.442-1.42,3.123-2.366,2.682-4.007-.442-1.42-3.123-1.183-4.023-1.183-1.783,0-2.461,1.183-4.685,0l-.457-.237c-2.9-.473-3.344,4.969-4.244,6.847-.883,1.893-2.461,1.893-2.019,4.259.237.947,2.24,2.366,2.682,3.77.457,1.909,0,9.923,3.124,5.206,1.8-2.855.678-8.282.9-11.122" transform="translate(299.599 74.92)"/>
  <path id="Path_1275" data-name="Path 1275" d="M636.443,243c-3.786-1.641-2.224,1.656-4.007,3.076-1.783,1.4-4.023.221-6.026.694-1.562.473-6.247,3.3-4.464,5.443,1.783,2.13,5.127-1.656,7.588,1.4,1.783,2.145.442,4.023,3.344,5.443,2.9,1.656,3.124.237,4.023-2.366a32.186,32.186,0,0,1,1.12-3.549c.221-1.656.678-1.42.442-3.3-.221-.962-1.12-2.84-1.562-4.023-.221-1.42,2.019-1.909-.221-2.84" transform="translate(303.743 58.33)"/>
  <path id="Path_1276" data-name="Path 1276" d="M632,291.68c-2.682,0-4.244,5.427-.663,5.663,3.344.237,5.805-6.373.9-5.663" transform="translate(308.19 86.67)"/>
  <path id="Path_1277" data-name="Path 1277" d="M634.544,277.527c-3.124.71-3.786,2.824-.9,4.007,4.023,1.656,4.48-3.55,1.562-4.244" transform="translate(309.666 78.391)"/>
  <path id="Path_1278" data-name="Path 1278" d="M628.277,295.316c-2.682-1.183-5.585,3.786-4.244,4.969,2.9,1.893,7.367-1.42,4.685-4.48" transform="translate(304.984 88.697)"/>
  <path id="Path_1279" data-name="Path 1279" d="M626.171,238.587c-1.783-.237-6.926,6.847-2.461,7.083,3.344,0,6.926-5.427,2.461-7.32" transform="translate(303.967 55.901)"/>
  <path id="Path_1280" data-name="Path 1280" d="M624.575,230.169c-3.8-2.366-4.023,3.3-.221,4.717,5.584,2.366,4.023-4.48.442-4.244" transform="translate(303.78 50.846)"/>
  <path id="Path_1281" data-name="Path 1281" d="M612.331,292.461c-1.783-.473-3.565.237-3.565,2.366-.221,2.84,1.8,1.656,3.344,1.656,2,.221,3.344,1.641,3.8-1.183.221-2.366-1.783-3.076-3.8-2.84" transform="translate(296.352 87.072)"/>
  <path id="Path_1282" data-name="Path 1282" d="M695.347,281.18c-2.9.947-3.565,4.244-6.689,5.19-2.224.726-7.146,1.42-2.224,3.313,1.562.458,6.91.71,8.266-.237,2-1.656,4.244-7.557.883-8.266" transform="translate(339.998 80.637)"/>
  <path id="Path_1283" data-name="Path 1283" d="M313.284,54.577c-4.48.473-8.5,1.42-12.967,1.42-5.805-.237-10.27-.71-15.413,1.183-3.786,1.183-7.367.473-11.169,1.183-4.464.71-6.925,3.786-10.507,5.663-4.244,2.13-25.02-.71-23.458,7.083,2,10.633,22.8-1.656,26.361,5.663,1.12,2.6-1.12,8.03-.678,11.106.442,2.6-1.12,1.641,1.12,3.06,1.562.947,4.023-.71,5.143,1.656.9,2.6-1.12,1.183-2.019,2.13-1.562,1.42-1.12.473-2.224,2.84-.9,1.893.221,2.13-1.578,3.786-1.12,1.183-3.344,1.42-4.464,3.076-4.685,5.663-1.341,17.006,1.578,22.685,2,3.786,4.244,2.366,8.03,4.007,1.783.71,2.019,2.84,4.922,2.13,2.019-.473,3.124-2.6,4.244-4.5.678-1.656.9-3.076,2.461-4.259,1.578-1.183,3.124-.71,4.7-2.366,2.445-2.84,2.224-6.847,6.026-8.976,3.565-2.13,6.484-.237,10.27-.237,3.36-.237,5.805-3.313,8.724-4.717,2.682-1.42,4.464-4.023,7.146-5.443s5.805.473,8.945-.237c2.9-.473,6.247-2.13,9.386-3.076,2.224-.71,4.464-1.183,5.364-3.786-.9-.473-4.464-1.183-4.685-1.877-.9-1.893,1.12-2.84,2.461-2.84,2.24,0,4.922,5.663,6.7,2.13,2.019-3.77-5.364-5.663-2.9-8.266,1.562-1.42,6.484-.237,8.708-1.656,1.562-.947,2.9-3.076,4.023-4.717,1.12-1.893.9-4.007,1.783-5.443.678-1.183,2.9-1.42,3.36-2.6.883-1.893-.9-2.84-.237-4.48,2-4.48,18.094-4.023,18.536-7.793.221-4.717-12.51-1.893-14.75-1.893-5.143-.237-8.046-3.786-13.188-4.259-8.251-.473-16.754.473-24.783.473a49.114,49.114,0,0,0-14.529,1.893" transform="translate(83.2 -51.826)"/>
  <path id="Path_1284" data-name="Path 1284" d="M279.005,53.653c-6.042.71-10.712,3.076-16.974,1.893-6.042-.947-11.611-2.6-17.653-.947-3.344.947-9.166-.237-11.832,1.183-6.042,3.3,3.124,2.84,4.244,3.786,4.685,3.77-5.364,7.556-8.045,7.793-4.244.473-8.046-.237-10.506,3.549-.9,1.183.221,2.13-.9,3.076-1.341,1.183-4.244.237-5.585-.237-2.682-.947-4.922-3.549-7.146.237-2.24,4.007,1.341,4.48,4.023,4.953,4.244.71,6.247,2.366,10.491,1.656,2.445-.473,8.487,0,10.049-2.6,2.9-4.244-3.36-3.076-5.585-3.549.457-5.427,10.712-1.893,14.072-2.84,3.344-.947,6.484-3.77,9.828-5.19,6.7-2.84,13.409-2.84,20.319-4.259,3.124-.71,6.042-2.366,9.386-3.076,2.9-.71,6.247,0,9.166-1.183,3.8-1.42,3.581-3.786-.442-4.717-2.224-.473-4.922.237-6.925.237" transform="translate(62.534 -51.138)"/>
  <path id="Path_1285" data-name="Path 1285" d="M235.94,77.22c-2.461,0-5.805.71-8.045,0-2.019-.473-2.682-2.13-4.244-3.076-3.124-1.893-5.143-.947-8.266.947-.9.71-2.9,2.824-4.244,2.6-2.445-.71,0-1.893-.221-3.313-.678-1.893.442-1.893-2-2.366-2-.473-3.565.947-4.922,2.13-2,1.42-5.585,4.48-5.585,7.32.221,5.19,6.925,2.6,10.065,2.13,4.906-.71,12.052-1.656,16.3,1.656,2.461,1.893,5.585,4.717,4.7,8.266-.457,1.656-3.581,7.32-4.922,8.03-3.565,1.656-8.929-2.13-12.289-.237-4.906,2.824,2.9,4.007,5.143,4.007,5.143.237,6.7.947,9.166,5.443,1.12,2.366.678,3.3,3.8,4.244.883.237,3.565.71,4.244,0,2.461-2.13-4.023-8.266,2.224-7.083,2.682.237,4.685,4.5,7.809,1.42,4.7-4.259-3.786-6.61-3.124-10.159.9-4.5,7.367-.71,8.724.71,2,1.893,2,3.549,5.364,1.183,1.783-1.183,4.023-4.48,3.565-7.083-.9-3.549-3.8-2.84-6.247-3.549-8.045-1.893,1.341-6.626-4.244-11.343-1.783-1.42-11.39-4.007-12.51-1.893" transform="translate(59.361 -40.22)"/>
  <path id="Path_1286" data-name="Path 1286" d="M220.579,56.368c-2.24.473-3.36,1.893-5.143,2.6-1.562.71-4.244-.237-5.364.473-6.484,3.549,4.007,4.733,6.484,4.259,2-.237,10.948.473,11.832-1.42,1.12-2.13-5.805-7.556-7.588-5.9" transform="translate(64.893 -49.373)"/>
  <path id="Path_1287" data-name="Path 1287" d="M196.665,90.466c-2.461,0-2.224,1.42-3.344,2.6-.221.473-2.9,3.549-2.9,3.786-1.341,4.969,4.023,1.42,6.042,1.183,2.461-.237,7.809,3.06,7.146-2.366-.457-2.6-4.259-7.083-6.7-5.443" transform="translate(54.622 -29.85)"/>
  <path id="Path_1288" data-name="Path 1288" d="M190.823,67.218c-3.581-.947-4.464,1.42-7.367,2.366-4.244,1.183-3.581-2.13-6.042-3.77-4.244-2.84-18.773,3.77-11.39,6.373,3.581,1.183,8.266-.947,12.289-.237,2.9.71,4.464,1.656,7.588.947,1.341-.237,7.146-.71,8.046-1.656,2.461-2.6-1.578-4.007-3.581-4.007" transform="translate(39.468 -44.148)"/>
  <path id="Path_1289" data-name="Path 1289" d="M198.4,65.279c-3.8,0-3.8.237-6.7,2.13-2.445,1.42-5.364,2.13-1.341,3.77,1.562.473,6.026.237,7.367-.473-.678.473,2-3.786,1.783-3.076.221-1.656.221-2.84-2-2.84" transform="translate(53.561 -44.339)"/>
  <path id="Path_1290" data-name="Path 1290" d="M193.424,71.3c-5.143-1.893-5.805,1.42-9.386,3.076-1.783.71-3.344-.71-4.023,1.893-.442,2.13,1.341,2.6,2.682,3.549,4.023,3.076,4.023.473,7.809-1.893,1.341-.71,2.9-.237,4.023-1.42,1.341-1.42,1.562-4.007-.442-4.717" transform="translate(48.698 -40.908)"/>
  <path id="Path_1291" data-name="Path 1291" d="M200,59.893c-1.12,0-5.805-.947-6.484-.237-1.783,1.42,1.12,4.717,2.461,5.19,1.341.71,4.685.237,5.805-.947,1.578-1.656,1.578-4.259-1.12-4.259" transform="translate(56.21 -47.456)"/>
  <path id="Path_1292" data-name="Path 1292" d="M202.556,70.79c-4.244,0-4.906,0-7.809,2.6-1.341.947-5.364,3.313-1.578,4.733.678.237,7.367-1.893,8.266-2.366,1.783-.947,4.023-4.259.678-4.953" transform="translate(55.421 -40.873)"/>
  <path id="Path_1293" data-name="Path 1293" d="M220.533,71.361c-4.023,1.183-1.341,5.206,1.783,3.786,3.124-1.183,2.461-4.733-1.12-4.023" transform="translate(70.966 -40.734)"/>
  <path id="Path_1294" data-name="Path 1294" d="M204.513,61.064c-4.922.237-1.12,5.663,2.224,3.549,3.124-1.893,1.12-4.717-1.783-3.786" transform="translate(61.525 -46.733)"/>
  <path id="Path_1295" data-name="Path 1295" d="M200.6,64.547c-1.12,1.656-.678,4.969,1.783,3.313,2.682-1.42.221-4.5-2.224-3.076" transform="translate(60.291 -44.553)"/>
  <path id="Path_1296" data-name="Path 1296" d="M197.769,67.686c-2.461,1.893.442,3.786,2.019,2.6a1.706,1.706,0,0,0-1.341-3.076" transform="translate(58.441 -42.975)"/>
  <path id="Path_1297" data-name="Path 1297" d="M183.066,61.378c-4.023-.473-7.367,2.6-2.461,4.023,3.344.947,7.809-3.313,3.124-3.786" transform="translate(47.666 -46.338)"/>
  <path id="Path_1298" data-name="Path 1298" d="M187.06,64.973a3,3,0,0,0-1.12,2.366c2.24.947,4.922-2.366,1.8-2.84" transform="translate(52.159 -44.506)"/>
  <path id="Path_1299" data-name="Path 1299" d="M165.237,64.059c-4.7-.237-9.386,3.786-2.9,3.549,1.12,0,3.8,0,4.7-.71,1.783-1.42,1.12-4.007-1.562-3.076" transform="translate(36.688 -45.012)"/>
  <path id="Path_1300" data-name="Path 1300" d="M189.517,73.171c-2.682-.947-3.581-.237-5.584.947-3.124,2.13-1.341,1.893-5.127,1.183-2.24-.473-4.464,0-6.925-.473-1.8-.473-3.124-1.893-4.922-2.366-2.9-.473-4.464,2.13-6.91,3.076-2.019.71-4.7-.237-6.7.71-2.682,1.183-2.9,2.366-.442,4.733,2.019,1.656,5.364.71,7.809,3.313-1.341.71-16.075-2.13-9.386,3.313,1.783,1.42,7.367,2.6,9.607,2.13,3.8-1.183,5.143-4.954,9.844-4.48,3.344.473,5.585,3.076,8.929,3.076,1.783,0,8.945-1.183,9.607-1.893,3.581-3.3-1.341-4.023-1.562-6.137-.221-2.84,5.821-3.549,2.461-7.083" transform="translate(31.166 -39.941)"/>
  <path id="Path_1301" data-name="Path 1301" d="M180.89,80.259c-3.8.473-4.685,4.733-.221,4.733,4.023,0,5.805-5.679.9-4.733" transform="translate(47.381 -35.466)"/>
  <path id="Path_1302" data-name="Path 1302" d="M162.735,68.913c-4.464-.473-5.364-.237-8.708,2.13-3.581,2.366-7.825.947-11.169,3.313-4.685,3.076-1.12,6.137,3.344,5.427,2.9-.473,5.805-2.587,8.724-3.06a107.562,107.562,0,0,0,12.51-2.84c2.461-.71,6.925-.947,2.9-3.786-2.461-1.42-5.127.237-7.367-1.183" transform="translate(26.002 -42.073)"/>
  <path id="Path_1303" data-name="Path 1303" d="M180.791,216.5c-5.805-4.969-12.289-10.412-19.877-11.6a25.571,25.571,0,0,0-10.286.473c-3.565,1.183-5.143,4.023-.221,4.244,4.244.237,5.585-.457,9.828,1.42,4.906,1.909,6.247,1.909,8.929,6.152,2.224,3.3,3.124,1.893,6.7,2.114,1.341,0,7.6,2.6,5.805-1.641,0-.457-.663-.947-.883-1.167" transform="translate(29.843 36.414)"/>
  <path id="Path_1304" data-name="Path 1304" d="M179.524,214.613c-1.562-.237-4.244-1.183-5.585,0-.9.947-.237,2.366-.9,3.3-.9.947-2.24.694-2.9,1.42-4.023,4.244,6.247,3.06,9.166,3.06,2.24,0,11.39-.947,9.828-5.19-1.12-3.076-7.809-1.42-9.828-2.6" transform="translate(42.5 41.855)"/>
  <path id="Path_1305" data-name="Path 1305" d="M618.64,232.413c-3.786-.947-3.124,3.06-.221,3.786,3.8.947,3.8-3.786.457-3.786" transform="translate(300.55 52.389)"/>
  <path id="Path_1306" data-name="Path 1306" d="M628.412,235.087c-2.9.237-2,3.549.221,3.549,2.224-.237,2.445-4.259-.221-4.023" transform="translate(306.648 53.737)"/>
  <path id="Path_1307" data-name="Path 1307" d="M636.978,265.531c-3.786.237-1.562,4.733.678,4.5,3.124-.473,1.341-4.023-.442-4.717" transform="translate(311.475 71.472)"/>
  <path id="Path_1308" data-name="Path 1308" d="M618.068,293.281c-3.8.947-.9,5.9,1.783,4.023,2.445-1.42,1.341-4.969-1.562-4.259" transform="translate(300.68 87.436)"/>
  <path id="Path_1309" data-name="Path 1309" d="M710.109,319.275c-4.48-1.183-4.243,4.969-.678,5.663,3.344.71,5.805-6.137.9-5.663" transform="translate(352.953 102.552)"/>
  <path id="Path_1310" data-name="Path 1310" d="M234.071,127.69c-2.461.947-3.124,3.534-4.7,5.427-2,2.366-5.143,3.786-7.588,5.679-8.487,7.083,8.487,3.076,11.39,4.244,2.445.71,3.344,3.786,6.026,3.3,4.244-.947,1.562-2.824,1.12-4.717-.457-1.641-.9-.947-.678-2.824,0-1.183,2-1.656,1.578-3.313-.678-3.77-3.8-1.183-5.584-.237-1.783-2.13,3.8-6.61-.663-7.556" transform="translate(71.5 -8.011)"/>
  <path id="eu" data-name="Path 1" d="M-5962.569,1324.028c-2-1.669,1.28-5.679-2.147-6.714s-5.6-1.194-8,1.357,2.366,6.263,1,9.639-3.117,7.466-6.248,5.5-3.962-6.2-7.14-12.763-.749-6.614-5.927-12.823c-2.258-2.707-7.2-3.274-9.889-5.577-2.935-2.52-3.612-6.492-6.391-7.278-4.927-1.394-3.866,3.15-.464,8.283s13.267,7.4,15.744,13.209c.963,2.259-2.671,2.23-3.749,4.445-1.332,2.761-.958,7.252-2.427,7.1-2.406-.241,1.416-6.684-2.285-10.853s-7.908-1.735-12.174-5.462-.326-6.489-4.1-8.851-5.835-.608-9.25,0-1.188,1.618-4.373,2.226-3.865-1.676-7.092-.584-1.887,3.718-5.548,7.092-7.109,2.146-9.1,6.4,1.732,4.72-.6,8.168-3.8,4.539-8.354,6.892-3.694,1.534-9.375.65-7.795-.339-11.794-3.089,1.88-3.274-1.986-6.887,2.388-7.33,2.176-12.781-1.873-6.636,3.806-7.678,14.847,2.59,20.653.255,3.136-8.489.372-13.065-9.886-1.439-9.329-6.776,6.4-1.348,8.431-3.046-1.8-2.45,1.023-4.225,5.859,4.644,5.859,4.644a50.475,50.475,0,0,1,8.216-9.855c5.206-4.827,6.785-6.437,11.924-8.8s7.085.654,8.676-3.106-2.871-7.789-1.651-11.435,4.305-3.6,5.938-1.737-2.651,7.589-.232,10.359,6.865-1.19,10.478.127.876,3.81,4.426,3.485,6.709-4.2,9.909-4.922,2.681,2.8,5.013,1.988c.917-.321,1.037-1.676,1.862-2.325.66-.493,1.88-.489,2.737-2.538,1.413-3.375-1.714-4.526.675-6.422s7.1-.411,8.378-2.5-4.707-3.554-1.487-5.681,13.906,2.192,13.142-4.13-12.306,2.733-17.554.314-4.917-4.181-4.262-9.9,10.638-7.563,6.926-11.68-12.539,7.422-12.539,7.422-6.058,1.811-6.815,5.6,3.382,6,2.814,10.187-2.77,3.958-4.514,6.922.94,4.407-1.38,6.776-6.142,6.286-9.252,4.5-1.324-6.911-3.258-11.62-1.1-4.625-4.778-4.631-7.594,5.513-11.683,4.015-3.847-5.586-4.069-9.981-1.41-3.233,3.739-7.309,8.841-2.825,16.369-9.523,4.013-11.429,14.357-17.071,12.7-6.43,28.255-4.4c6.954.909,13.968,4.6,20.345,6.453,7.291,2.119,13.355,2.6,14.918,5.745,1.478,2.971-2.035,4.219-7.528,4.921-1.37.176-4.152-1.623-5.962-1.5-3.022.208-3.785.616-4.142,2.21s2.138,3.818,4.142,4.859,2.126-1.894,5.177-1.5,3.759,2.339,6.462,1.5,1.936-3.644,4.348-4.859,4.434.975,6.232-1.392-2.222-5.827-.184-7.846,6-.692,7.426.292-6.086,5.018-1.126,4.888,10.956-4.918,19.51-6.27,8.663.826,14.138,0,2.788-4.816,8.809-4.958,13.477,6.849,15.275,4.388-7.6-6.618-7.425-10.425,5.355-6.6,9.5-3.5,4.891,8.5,8.283,11.924-2.053,6.274,0,9.139,6.311,3.8,8.961,1.714,2.57-7.212,0-9.282-2.881,1-5.07-2.035-7.786-6.679-4.07-8.64,16.547,1.143,17.634.136-4.975-4.435-3.229-6.163.627.8,9.048-1.1c1.363-.306.027-1.089,1.5-2.571s1.846-2.637,4.391-3.356a53.089,53.089,0,0,1,11.389-2.035c3.18-.038,4.632,1.337,6.6.643,7.578-2.669,3.036-5.548,9-6s7.245,3.137,14.648,4.849,11.355-4.944,15.564,1.134-6.483,5.833-5.971,8.417,4.481.773,7.685,2.653,7.05,4.934,6.375,5.622l-.091-.035s-7.236-2.852-12.366-2.883-3.1.33-6.948,2.1-.769-5.081-7.8-1.922-1.235,4.815-2.06,7.7-1.173,1.405-.521,4.133,4.019,3.775,2.114,6.783-8.929,5.846-9.229,4.471c-.137-.626,3.253-1.576,4.6-7.563,1.484-4.986,2.2-10.052-1.1-14.839s-4.926-5.133-9.281-4.338-5.195,4.191-9.033,7.322-6.7,2-5.788,5.731,7.134.591,8.511,9.487,2.177,7.533-3,26.1c-1.7,6.107-.739,11.328-8.6,20.73-3.531,4.222-8.947,5.3-14.66,9.523s-3.645,1.143-8.308,7.83-3.186,11.291-11.023,19.385-15.284,6.35-19.754,11.382,1.874,8.749,1.874,8.749l5,4.283a3.308,3.308,0,0,1,3.09.963,2.873,2.873,0,0,1,.321,3.784c-.772,1.365-3.145-.417-3.411,1.676s3.932,2.689,4.518,6.946.869,8.207-3.855,9.122-13.709-3.409-14.959-5.266,4.977-5.571,3.427-11.406-6.641-6.98-7.39-11.121-3.287,1.779-7.028,3.263-2.993,1.039-7.938,2.671-4.218,1.988-11.671,2.417-10.963,2.389-17.2-1.674-7.988-2.063-11.853-1.285-1.508,4.1-3.606,4.784-2.352-1.846-4.273-1.357.273,1.827-3.462,3.106-4.377.21-6.712.179S-5960.574,1325.7-5962.569,1324.028Z" transform="translate(6536.158 -1152.788)"/>
  <path id="as" data-name="Path 2" d="M-5946.084,1336.263c-1.338.919-.843,3.625-3.013,3.988s-2.839-1.175-5.665-2.539-5.639-1.847-5.639-2.916.975-2.852.376-5.388-3.865-3.222-2.771-4.754,8.033-1.622,8.033-1.622a3.686,3.686,0,0,0,2.938-.193c1.382-.805.843-2.2,2.592-3.029s4.774,1.083,4.774,1.083a4.568,4.568,0,0,1,2.917-3.986,17.658,17.658,0,0,1,8.846-1.167c3.014.243,2.431,1.556,3.208,2.139s2.911,2.457,8.5,3.04,8.463-.7,13.92-1.7,6.645-2.6,7.909-2.31,5.79-1.982,6.957-2.177,4.229-4.35,5.84-3.948,2.311,3.548,4.8,6.61,4.064,2.554,4.38,5.494-1.422,4.135-2.518,6.626-1.954,2.155-1.027,4.028,13.767,6.3,16.177,5.336,2.43-10.11,2.236-10.6-4.077-3.16-4.077-4.813,3.422-.555,3.758-2.295.443-4.05-2.417-4.663-3.5-1.007-5.718-4.187-7.284-4.235-2.655-8.816,12.42-3.511,20.336-11.839,3.254-11.7,11.967-21.272,15.358-8.02,22.885-17a28.238,28.238,0,0,0,6.584-19.116s5.011-16.41,3.936-25.386-9.088-6.059-8.952-10.177,2.835-2.6,6.841-6.372,3.644-5.837,7.829-6.494,7.456-.01,10.095,4.653,1.38,10.262.262,15.98-4.732,6.891-4.732,6.891,9.757-2.416,10.07-5.978-3.662-6.672-3.662-6.672l2.3-4.436s-2.713-1.851-1.81-3.9a6.251,6.251,0,0,1,5.525-3.431c2.417-.132,4.144,2.9,4.144,2.9a13.1,13.1,0,0,1,8.265-2.432c5.21.123,12.576,2.923,12.576,2.923s-6.372-5.4-6.328-5.579,2.534-1.666,7.7-2.182a90.882,90.882,0,0,1,12.971.117s-2.168-3.672,0-5.149,8.675-.759,8.675-.759l.015,0a155.711,155.711,0,0,1,19.211-3.6c8.465-.841,7.715.92,14.649.235s9.674-1.435,14.76-4.425,8.518-2.082,14.038-1.5,5.906,3.662,8.042,3.826,13.092-2.062,19.171-.7,3.964,4.2,1.553,7.081-11.2,4.442-11.2,4.442,43.738,4.5,45.673,3.918,2.526-4.345,5.526-4.26,13.541.5,18.636,3.213,1.744,7.657,1.744,7.657a14.611,14.611,0,0,0,7.141.386c3.253-.879.725-2.565,5.037-2.64s4.472,1.92,4.472,1.92l19.615-.69s-.932-3.355.863-4.027,35.006-1.433,40.292-.155a8.021,8.021,0,0,1,6.09,6.084s17.988-.52,28.042,1.037,12.173,5.192,12.173,5.192,30.456,34.133,31.5,35.824-2.336,3.32-6.474,3.852-6.269-.8-9.815-.331-.89,1.389-4.488,1.616-6.651-.95-9.332-.018.146,2.316-1.393,3.745-4.764,1.972-4.764,1.972a9.506,9.506,0,0,1,3.785,3.355,5.994,5.994,0,0,1,.6,5.509c-.659,1.79-2.234.521-3.331,1.631s-.091,2.679-1.628,4.491a11.413,11.413,0,0,1-4.52,2.757,26.667,26.667,0,0,1-2.386,3.08,6.555,6.555,0,0,1-2.049,1.52,12.714,12.714,0,0,0-2.482,1.149c-.9.616.633,1.541.35,2.363s-1.483.925-1.483.925a13.312,13.312,0,0,0-2.945,1.844c-1.273,1.109-.61,1.343-1.969,1.991s-2.6,2.3-3.465.6.108-4.44-.385-7.479-1.254-1.2-1.65-5.2-1.193-6.573.138-10.384-1.216-1.078,6.487-6.606,22.857-13.8,24.326-15.507,1.027-2.677,0-3.17-4.107,1.2-4.107,1.2-4.517,5.05-7.926,5.543-2.466-2.457-6.316-3.35-4.966-.889-7.607,0-.7,1.723-2.958,3.557-3.672,2.094-4.822,4.147,2.551,3.674-.925,4.363-12.981-1.609-12.981-1.609a61.637,61.637,0,0,0-6.89-.879c-1.972,0-13.828-.687-24.131,1.038s-10.548,7.5-17.209,11.607-10.093,4.663-9.436,4.828,2.916,3,5.586,4.436,2.941,1.549,5.093,1.314.434-2.254,3.515-2.254,8.807,2.254,8.807,2.254,3.36-2.18,4.8-1.81.953,3.289.953,3.289a16.193,16.193,0,0,0,.128,7.065c.945,3.738,3.843,4.578,2.784,8.069s-5.658,6.566-7.413,5,.767-7.4-.531-10.669-2.2-3.555-3.862-1.075.871,4.485-2.409,10.438-10.712,13.373-10.712,13.373-6.9,8.284-11.907,10.748-3.975-1.467-8.021-.294-6.838,2.462-7.825,5.4.426,2.448-.706,4.228-1.913,1.778-3.822,2.894-1.964-1.33-3.3,1.7,3.545,2.949,5.325,7.441,2.16,6.814.888,10.137-3.668,1.622-5.928,3.009-1.737,1.815-3.114,2.45-1.75.205-2.5-1.062-.475-1.986,0-3.231a3.433,3.433,0,0,1,1.9-1.749s.822-.206.6-2.318-.511-4.977-1.674-5.689-2.511,1.093-3.812-.662.563-4-1.394-6.361-2.647-2.977-5.807-2.323-4.843,4.616-6.812,3.963.484-4.809-1.483-5.985-3.719.3-5.316,1.5-.485,1.926-1.07,3.291.21,1.472.958,3.734-.125,2.412,1.225,2.544,1.211-2.368,3.787-1.863,6.791,1.412,5.447,4.2-6.655,4.226-9.51,6.653-1.908,3.056-1.908,3.056,6.349.077,8.7,3.147.938,4.047,1.453,9.191,1.475,1.628-.725,12.2-25.3,25.489-29.935,29.161-10.348.515-11.528,2.939,1.78,2.829,1.25,5.506-.946,4.931-3.4,5.663-4.9-.116-5.15-2,2.646-3.17,3.688-5.881,1.649-3.756,0-4.712-6.6.887-6.6.887-6.169,3.848-7.819,7.623,8.733,11.92,11.644,20.022,0,12.385,0,12.385l-7.331,7.2s-6.328,6.312-8.192,5.648,3.463-7.283.214-7.6a9.135,9.135,0,0,1-5.292-2.467l-1.39-5.182s-5.166-3.777-7.978-3.462-3.27,4.725-3.27,4.725-.153,7.22-1.543,9.527-4.111-.65-4-2.649,3.756-8.786,2-13.323c-.917-2.373-3-3.121-4.638-5.649s-.291-3.837-1.934-4.461c-3.445-1.309-6.613,1.065-9.225,0s-4.362-20.879-8.889-23.033-7.748-.286-18.494,1.214c-4.761.664-7.2,8.224-12.135,13.289-5.715,5.865-8.649,4.606-12.387,10.562s0,5.964-2.564,13.26-4.957,20.5-10.873,13.544-13.222-36.362-12.79-41.379-4.8-6.824-4.8-6.824-3.049.87-8.341-4.106-8.1-16.224-12.827-15.8-20.794,1.247-28.978-.87-2.229-4.319-4.084-6.219-2.5-.775-3.335-.425,1.229,1.777-1.74,2.012-6.028,1.593-11-2.055-4.682-6.48-9.175-9.425-6.592-2.824-7.212,0,3.1,5.394,5.355,9.639,3.674,7.342,3.674,7.342.682,3.732,4.252,4.332,10.029-1.931,10.029-1.931,3.093-4.553,5.462-3.447,4.342,4.5,7.3,7.2,3.41,1.693,4.546,4.106,1.485,2.61,0,5.543-3.471,3.878-4.766,6.437,1.985,1.565-1.373,4.916-12.059,8.487-12.059,8.487-4.543.115-6.945,1.379-1.017,2.666-2.66,3.677-9.361,3.964-16.375,7.06-7.782,4.373-11.682,5.325-3.918-1.517-3.918-1.517v-6.572a28.527,28.527,0,0,0-1.39-10.742,31.309,31.309,0,0,0-6.066-9.352,21.924,21.924,0,0,1-4.551-4.549,33.054,33.054,0,0,1-3.411-6.446,27.181,27.181,0,0,0-2.273-7.477c-1.738-3.475-2.624-2.7-4.678-6.425s-2.646-4.047-4.6-7.87-1.4-5.2-2.636-5.84-.4,3.274-2.312,3.274-5.354-3.274-5.354-3.274a73.9,73.9,0,0,1-1.638-7.213c-.41-2.826-1.279-2.784,1.509-4.206s5.975.614,8.607-2.1.2-5.411,1.488-8.9,1.878-3.074,2.462-5.309a5.452,5.452,0,0,0-.127-3.633s1.33-2.619-.285-3.427-3.949.056-6.112.912-1.488,1.475-2.541,2.514a4.57,4.57,0,0,1-5,.575c-1.969-.863-1.646-2.626-2.876-4.027S-5944.747,1335.344-5946.084,1336.263Z" transform="translate(6537.858 -1152.765)"/>
  <path id="af" data-name="Path 2111" d="M478.849,254.622c-4.464,1.578-3.613-4.346-7.178-4.977-4.464-.631-5.963,4.086-10.727,2.824-3.581-.631-8.345-2.508-11.611-3.786-4.165-1.562-6.862-5.663-11.327-5.348-6.563.631-3.881,4.733-5.663,8.819-2.682,7.257-6.247,0-10.112-1.562-1.5-.631-3.281.316-4.48-.316-1.154-.533,27.837,13.743,2.286-4.2-.568-2.023,6.315,4.394-6.87-2.742-3.316-2.347-7.522-.1-9.781-.19l.081.039-.308-.165,2.945-2.009c-1.483-1.246-7.709-.515-8.009-2.708-.6-2.524,1.483-2.84,2.382-5.032,1.783-5.663-.3-8.819-5.364-8.819-8.045,0-16.091,2.508-24.121,3.155-4.78.316-8.629.631-13.109,3.139-3.565,1.893-6.263,4.417-10.712,3.471-6.263-1.262-5.064-2.209-9.229,3.155-3.565,4.733-9.244,6.61-11.011,12.6-1.183,3.77-.6,8.172-3.581,11.327-2.682,2.84-6.247,5.663-8.929,8.5-1.5,1.246-3.881,2.524-4.764,4.4-1.183,1.877-.3,3.786-.9,5.348-1.783,4.4-6.547,5.348-7.746,10.081-.9,4.417,1.2,9.465,1.783,13.551.6,5.364-.9,8.188-2.082,13.236-2.082,8.5-.3,17.953,4.764,24.578,3.281,4.4,7.746,7.572,10.428,11.974a43.5,43.5,0,0,0,8.345,11.327c5.364,5.348,9.528,4.717,15.192,2.84,4.764-1.909,9.528.631,15.176-.316,8.945-1.593,17.574-11.658,25.32-1.593,1.183,1.278,2.082,3.786,3.581,4.4,2.382.631,3.266-1.562,5.064-1.877,5.048,0,8.03,3.786,8.03,8.819v.631l-.3-.947c.6,9.449-6.862,15.428-.6,23.616,2.682,3.786,6.862,5.979,8.945,10.081,2.082,3.786,1.483,8.187,2.982,12.289,1.483,4.4,1.183,8.188,2.082,12.92,1.183,6.294,1.483,5.979-1.783,11.343a26.181,26.181,0,0,0,.3,29.91,23.7,23.7,0,0,1,3.8,14.415c0,5.979.082,6.393,3.647,12.671,2.382,4.1,3.281,8.5,5.064,12.92,1.783,4.1,4.764,7.257,5.364,11.974.6,4.417-1.483,9.134,2.4,12.6,3.565,2.824,7.746,0,11.91-.631,5.963-.947,13.693-1.578,18.773-5.364,3.281-2.824,5.064-7.241,8.046-10.712,3.281-3.471,6.847-5.979,8.629-10.712,1.183-3.155.9-7.241,2.082-10.4,1.783-4.4,5.947-4.4,9.244-7.556,2.382-2.824,2.682-5.979,2.082-10.081s-2.682-7.556-.9-11.642c1.483-3.77,6.247-6.925,9.528-9.134,4.464-3.155,10.128-5.995,12.21-11.343,1.783-4.1-.3-8.187-.9-12.6-.3-4.4.3-8.187-.9-12.289-1.783-4.733-1.783-5.663-1.5-10.4.3-8.819-2.966-17.952,6.563-22.985l-.3-.315c4.165-3.155,6.563-7.257,10.128-10.4,3.565-3.155,8.046-5.679,11.027-9.45,5.947-7.241,9.528-18.268,12.81-27.418.9-3.139,3.865-11.011-1.783-11.958-2.682-.316-7.446,5.032-10.712,5.348-2.982.315-8.046.631-11.027,0-6.547-1.262-4.464-4.417-5.947-9.45-1.783-6.626-10.428-7.257-13.709-12.6-1.783-2.524-.3-6.61-2.082-9.765-2.4-3.471-4.764-3.471-5.963-7.872-.6-3.155,0-6.61-.9-9.765-.9-4.4-3.881-5.663-6.547-8.818-2.4-3.471-3.281-6.941-4.764-11.027-1.2-3.455-4.165-6.61-4.764-10.4" transform="translate(117.048 -43.633)"/>
</svg>
