<svg xmlns="http://www.w3.org/2000/svg" width="1041.724" height="605.096" viewBox="0 0 1041.724 605.096">
    <g id="Custom_Map" data-name="Custom Map" transform="translate(34.812 -1717.045)">
      <path id="as" class="continent active"
        d="M487.163,230.43c-.9,5.032.883,8.188-.9,13.22-1.2,4.1-.6,7.572-4.165,8.818-4.464,1.578,5.379,12.273,7.178,13.835,2.966,3.155,5.364,9.765,7.446,13.851,1.783,3.471,4.764,7.872,5.663,11.658.9,4.733-1.2,6.61,3.266,9.765,1.783,1.262,3.581,1.262,5.364,3.155,1.2,1.262,2.082,3.471,2.982,5.032,2.382,3.786,4.764,7.556,5.663,12.289.3,3.455-1.2,7.856,2.682,9.134,3.281.947,9.828-3.155,12.81-3.786,5.663-1.246,11.611-.316,15.192-5.348,2.982-3.786,4.165-6.31,8.046-9.45a92.084,92.084,0,0,0,10.428-8.5c2.382-2.209,8.03-8.818,8.03-12.6,0-5.663-8.629-6.941-11.911-9.765-3.281-3.155-2.682-8.5-7.446-4.417-2.982,2.824-2.682,7.541-8.046,6.294-1.183-.315-4.78-3.471-5.364-4.717-1.5-2.524.584-3.786-.3-6.294-1.2-2.209-5.663-2.524-7.446-4.417-2.082-1.893-2.982-5.364-3.881-7.872l-.6-.947c1.183-5.995,11.221-15.324,13.6-12.484,3.581,4.4,2.128.745,7.176,2.97,3.581,1.578-1.407,2.936,2.474,2.621,2.082-.315,2.093-1.893,5.075,0,2.082,1.562,2.776.4,3.959,1.957,2.682,2.524,1.393-3.9,4.675-3.588,2.982.316,17.243,27.755,19.94,27.755,5.064,0,9.828-4.417,14.892-.947,2.682,2.193,2.982,6.61,5.364,9.765.9.947,1.783.947,2.682,1.877.316.962-.3,2.524,0,3.155,1.5,2.524,2.082,3.786,4.78,4.1,5.364.947,1.483-2.524,5.064-4.1,3.881-1.877,3.565,2.524,3.565,5.348,0,2.84-1.483,5.995-1.183,8.819.3,3.786,2.982,5.032,4.464,8.5,1.783,3.155.3,6.626,1.783,10.081,1.183,3.471,4.165,5.364,5.364,9.134a156.156,156.156,0,0,0,7.146,16.375l-.3-.931c2.682,4.417,5.947-1.909,7.73-4.1,3.581-4.4,1.783-4.4,2.082-10.38.3-4.4,1.2-9.134,1.5-13.535.3-5.364,3.581-6.626,7.146-10.1,2.982-3.139,7.446-5.663,9.828-9.45,2.981-4.4,2.382-5.979,6.847-9.134,2.682-1.877,5.779-3.932,9.36-2.054,2.682,1.278,3.15.792,4.349,2.685a23.2,23.2,0,0,0,4.48,5.048c3.565,3.471,5.048,6.626,6.247,11.658.584,3.155-.315,9.134,3.865,9.134,3.881,0,3.581-7.572,6.862-6.294,1.783.947,3.266,9.449,4.165,11.642a43.884,43.884,0,0,1,4.465,21.423c0,3.786-.9,6.626.6,10.065,1.783,3.471,5.364,6.626,7.446,10.412,1.783,3.455,2.982,8.188,5.648,11.011,3.281,3.786,7.446,5.979,7.146.316a86.839,86.839,0,0,0-2.082-12.6c-1.483-4.4-6.247-5.348-9.229-8.818-7.146-7.241-7.746-11.958-6.547-21.723.9-5.995,2.382-5.679,6.847-3.155,5.064,2.84,5.963,4.1,8.345,8.5.6,1.262,2.4,2.824,2.982,3.786.3.947.9,5.348,1.5,5.663,3.565,2.84,5.648-2.84,7.446-4.717,2.982-3.786,7.446-5.032,8.345-10.081.584-3.786-.316-11.043-2.082-13.867-3.881-6.61-18.173-15.428-11.611-24.562,2.666-3.786,7.446-3.786,10.712-1.262,1.183.631.3,5.032,4.165,3.455.9-.316.9-3.77,2.382-4.733,1.2-.947,3.281-.315,4.464-.947,2.4-.947,3.281-3.471,5.963-3.786h-.6c14.592-2.508,17.574-20.461,18.473-33.065-5.648-.316-1.183-3.155-1.483-5.979-.3-2.209-5.364-7.257-6.862-9.134-1.483-1.893-6.247-5.995-6.847-8.188-.6-3.786,4.464-6.31,6.547-8.5-2.982-3.155-7.446.631-11.027-.631-1.483-.631-7.446-5.364-7.446-6.941,0-2.193,7.746-8.5,9.828-8.187,4.764.947-.6,7.257,3.565,8.818,5.064,1.893,5.963-8.5,11.327-.947,1.483,1.893.3,2.524,2.682,4.717,1.783,1.578,3.281,1.262,4.764,3.786,2.082,3.471.9,6.61,2.082,9.765.9,2.84.3,2.84,3.565,2.84a35.672,35.672,0,0,0,5.364-1.893c9.828-7.856-9.229-14.166-10.727-20.461-.584-4.1,3.266-5.348,3.581-9.45.3-3.786-2.4-9.45,4.764-7.257,2.082.631,1.5,3.471,4.464,3.155,3.281-.316,2.682-1.578,2.682-4.417.3-1.893-1.183-4.1-.9-6.31.3-2.508,1.5-4.086,2.082-6.294.9-3.471,1.183-7.241,1.783-11.027,1.183-5.048-.3-5.364-2.682-9.765-2.966-4.733-2.966-7.241-8.629-9.134-3.565-.947-6.847,0-10.128-.947-2.382-.631-2.382-1.246-4.165-2.193-.883-.631-3.565-1.893-4.165-2.524-2.382-1.578-1.783.631-2.382-2.84-.3-1.578.6-4.733,1.2-6.294,1.5-3.155,3.881-8.819,7.146-10.081,1.5-.631,4.78-.316,6.547,0,1.783.316,4.165,2.193,5.663,2.193,2.382,0,2.982-1.877,4.764-2.508,3.281-.631,3.881,1.578,6.247,2.193,1.783.631,4.165,1.578,6.263.631,3.881-1.262,1.783-.947,1.783-3.77,0-2.209-1.2-10.081,4.465-6.925,2.682,1.578,3.581,9.134,8.345,4.4,1.783-1.262.3-4.4,2.382-5.663,2.682-1.893,4.48,0,4.764,2.508.6,2.84-2.082,3.786-2.682,5.995-.584,2.824.9,4.4.3,6.925s-3.581.947-3.266,4.4c0,1.893,2.966,4.1,3.865,5.348a88.922,88.922,0,0,0,9.528,11.658c1.5,1.562,8.345,9.134,10.428,8.187,2.981-1.262-.3-3.471-.3-4.733,0-.947-.3-1.578-.3-2.524.3-1.578,2.082-1.578,2.382-2.524.6-2.209-.6-3.471-.9-5.995,0-.631,2.082-.947,2.082-2.84-.3-1.262-2.082-2.209-2.382-3.139-.9-1.893-1.183-5.048-2.682-6.31-2.082-2.824-4.465-1.262-6.847-2.824-4.764-3.471-2.682-8.187,2.382-7.872,2.682.316,4.165,2.209,6.862,2.209,2.082-.316,4.764-2.209,6.547-2.84h-.3c3.565-2.209,2.682-6.294,7.446-7.241,3.565-.631,8.929.947,3.865-3.77-1.483-1.893-11.611-5.048-5.048-8.5,3.565-1.893,10.712,4.4,14.293,4.717,1.183.316,3.881.947,4.764,0,2.382-2.524-.6-2.84-1.183-4.717-2.682-5.979-3.881-4.717-9.528-5.979-8.329-2.193-17.274-2.524-25.32-5.663-9.229-3.155-24.72-8.819-34.548-5.979.6,1.262,1.5,3.155,2.082,4.1-3.265,1.578-6.847-2.209-10.112-3.155-4.465-.947-9.828,0-14.293.316-5.064,0-6.847-1.262-11.611-3.155-4.165-1.578-9.828-.631-14.292-.947-6.547,0-8.929-.316-14.293-3.786-6.263-3.786-11.926-3.471-18.773-3.471-3.281,0-8.629-.947-11.027,1.262-2.682,2.209.3,3.786-3.865,4.733-1.8.316-4.48-.947-6.263-.947-3.881,0-3.281,1.578-6.247,2.524-4.165,1.262-6.562-2.209-9.229-4.417a32.49,32.49,0,0,0-19.956-6.61c-2.382.316-4.165,2.209-7.146,2.524-3.881.315-7.746-2.209-11.911-2.524-6.862-.315-14.592,4.1-21.155,1.893.9-3.786,6.862-1.893,6.862-6.61,0-3.786-4.464-4.4-7.146-4.1h.3c-3.281,0-6.247,1.262-8.929.947s-6.547-1.893-8.945-2.84c-2.966-.947-5.048-3.139-8.345-1.578-2.966,1.262-2.082,3.471-4.165,4.733-1.783.947-4.165.631-5.947.631-3.581,0-6.562,0-9.828.947a32.166,32.166,0,0,0-5.364.947c-3.565,1.262-2.082,1.262-4.165,3.139-2.083,1.893,0,1.893-3.565,2.84-1.5.316-3.581-.631-5.064,0-6.547,2.209.9,2.84,1.2,6.61-2.682.947-19.656-3.786-18.757,2.524.3.947,3.581,3.77,4.48,4.4.584.316-.3,1.893.584,2.508,1.2.947,2.981.316,3.881.947,2.382,1.578,2.083.316,2.083,4.1,0,1.578.3,3.455-.6,4.717-2.682,3.155-9.229,1.578-9.229-2.524,0-2.209,1.783-3.155,1.5-5.663-.6-2.209-3.581-5.364-4.464-6.941-2.682-4.086-3.581-8.187-8.945-7.872-5.963.316-7.73,4.086-3.565,8.5,2.082,1.893,9.229,7.556,2.082,6.925-3.881-.315-6.563-4.4-10.727-4.717-5.364-.316-7.146,3.155-11.311,4.717-3.281,1.262-8.945,0-12.51,0-3.581,0-20.256,7.241-21.155,5.979-.584-1.578,2.982-2.524,2.4-4.086-.6-1.578-4.165-2.209-5.663-1.578-6.247,2.524,2.4,5.348-2.382,9.134-1.183,1.262-3.881-.315-5.648.631-2.4,1.262-1.5,2.84-2.682,3.786-3.281,3.155-4.764,0-8.929,0-2.4,0-.9,2.524-4.48.947-.3,0-3.865-3.786-3.865-4.4-.3-3.139,5.663-1.578,8.345-1.578s8.345,1.262,9.229-1.893c1.5-4.417-5.648-5.048-8.03-5.979-6.563-2.209-14.592-4.1-20.555-6.294-2.982-.947-4.764-3.155-8.629-2.524V86.4c-8.629-.315-14.892,2.209-23.222,3.786-7.446,1.578-11.926,12.92-17.574,18.584a32.678,32.678,0,0,1-10.128,6.925c-5.064,2.209-8.629,1.262-9.828,7.556-.6,3.155.3,8.819,2.666,11.027,3.581,3.471,6.563-.316,9.844-1.893,4.764-2.508,6.247-.947,8.03,4.086.6,1.578,2.382,10.712,2.982,11.027,2.4,1.877,9.828-3.471,10.428-5.679.9-1.578-.3-4.086.6-5.663.9-2.193,3.281-2.524,4.165-4.4,2.682-5.348-3.881-6.925-2.382-12.273,1.483-5.048,6.847-4.4,9.528-7.556,2.666-2.84,2.966-8.187,7.746-6.626,6.247,1.893-.6,6.294-2.982,9.134-5.364,6.31-.9,15.76,6.847,13.551,2.682-.947,6.846-3.471,9.828-2.508,5.064,1.578,2.682,5.348-1.483,5.979-2.4.316-6.862-2.209-8.645.316-2.082,3.471,2.4,2.524,2.082,4.4-.883,3.155-2.666,2.209-4.764,2.84-2.382.631-2.982-1.262-4.764,2.193-.584,1.262.3,3.786,0,5.048,0-.316-4.165,4.417-3.565,4.086-3.881,2.209-1.5-.947-4.764-1.262-4.165-.316-6.847,4.733-11.011,4.733-2.982,0-2.682-2.524-4.764-3.155-2.666-.631-4.165,1.578-6.547,1.262-7.446-.316-3.565-4.417-3.281-8.5.6-6.31-5.648-4.417-6.547.316-.6,3.155,3.865,7.241.9,10.081-1.783,2.209-8.045,1.262-11.027,3.786-2.682,2.209-5.064,5.663-8.046,7.556-1.483,1.262-3.281,1.893-4.464,3.139-1.183,1.262-1.783,4.4-3.565,5.048-2.082.316-8.345-6.61-7.146.947-2.982.631-8.045-.947-8.945,2.824-1.483,5.048,3.281,3.155,5.663,4.086,4.764,1.893,9.828,13.867,2.382,16.391-5.648,1.877-14.892-3.155-20.855,0-3.565,1.877-2.082,6.294-2.382,10.081-.6,4.1-2.382,5.348-4.165,8.5,5.663,2.524-1.183,7.872,5.963,9.134,4.165.631,7.746-1.262,9.528,4.1,3.281-3.786,10.412-3.786,12.794-5.979,1.483-1.578,4.464-2.209,5.364-3.786.6-1.578-.9-4.717,0-6.626.6-1.877,2.382-3.139,3.881-4.086,4.764-2.824,5.064-1.578,7.446-6.61,1.783-3.786,1.183-4.1,5.947-3.786,1.783,0,4.165.947,5.963.316.9-.316.6-2.193,1.183-2.193,1.5-.631,2.4.316,3.581,0,3.865-.947,7.146-2.209,9.528,2.824.9,1.893-.3,4.4,1.183,6.31.9.631,4.764,1.562,5.648,1.877,1.8.947,6.247,1.893,7.446,3.155,1.783,2.193.6,4.717,1.2,7.241,2.682,11.027,2.382-6.925,7.146-4.733,2.4-5.048-14.293-12.273-16.375-16.375-2.082-3.786-1.5-10.081,3.565-7.257,1.783.947,2.682,4.717,4.165,5.979,1.783,1.578,3.581,1.262,5.364,2.524,2.982,1.578,6.846,4.717,8.345,7.872a19.894,19.894,0,0,1,.9,4.1c.6,2.508.3,3.139,1.483,5.032.9,1.877,2.982,3.471,3.581,5.032.584,1.262,1.483,5.663,2.382,6.294,3.581,3.155,6.862-2.824,6.862-5.663,0-2.524-2.4-5.979-1.5-8.5,1.2-3.139,6.247-2.193,9.244-2.508,1.5,2.193,0,3.77.3,6.294.3,2.84,2.082,4.1,3.281,6.61.883,1.578,1.483,3.455,3.281,4.417.883.631,2.082,0,3.281.316a20.744,20.744,0,0,1,2.682,1.893c2.4.316,2.682-.947,5.364-1.262,2.382-.316,3.881,1.562,6.247,1.562,3.281-.315,8.045-5.663,10.727-.631"
        transform="translate(113.141 1694.098)" />

      <path id="as" class="continent" data-name="Path 1"
        d="M-5962.569,1324.028c-2-1.669,1.28-5.679-2.147-6.714s-5.6-1.194-8,1.357,2.366,6.263,1,9.639-3.117,7.466-6.248,5.5-3.962-6.2-7.14-12.763-.749-6.614-5.927-12.823c-2.258-2.707-7.2-3.274-9.889-5.577-2.935-2.52-3.612-6.492-6.391-7.278-4.927-1.394-3.866,3.15-.464,8.283s13.267,7.4,15.744,13.209c.963,2.259-2.671,2.23-3.749,4.445-1.332,2.761-.958,7.252-2.427,7.1-2.406-.241,1.416-6.684-2.285-10.853s-7.908-1.735-12.174-5.462-.326-6.489-4.1-8.851-5.835-.608-9.25,0-1.188,1.618-4.373,2.226-3.865-1.676-7.092-.584-1.887,3.718-5.548,7.092-7.109,2.146-9.1,6.4,1.732,4.72-.6,8.168-3.8,4.539-8.354,6.892-3.694,1.534-9.375.65-7.795-.339-11.794-3.089,1.88-3.274-1.986-6.887,2.388-7.33,2.176-12.781-1.873-6.636,3.806-7.678,14.847,2.59,20.653.255,3.136-8.489.372-13.065-9.886-1.439-9.329-6.776,6.4-1.348,8.431-3.046-1.8-2.45,1.023-4.225,5.859,4.644,5.859,4.644a50.475,50.475,0,0,1,8.216-9.855c5.206-4.827,6.785-6.437,11.924-8.8s7.085.654,8.676-3.106-2.871-7.789-1.651-11.435,4.305-3.6,5.938-1.737-2.651,7.589-.232,10.359,6.865-1.19,10.478.127.876,3.81,4.426,3.485,6.709-4.2,9.909-4.922,2.681,2.8,5.013,1.988c.917-.321,1.037-1.676,1.862-2.325.66-.493,1.88-.489,2.737-2.538,1.413-3.375-1.714-4.526.675-6.422s7.1-.411,8.378-2.5-4.707-3.554-1.487-5.681,13.906,2.192,13.142-4.13-12.306,2.733-17.554.314-4.917-4.181-4.262-9.9,10.638-7.563,6.926-11.68-12.539,7.422-12.539,7.422-6.058,1.811-6.815,5.6,3.382,6,2.814,10.187-2.77,3.958-4.514,6.922.94,4.407-1.38,6.776-6.142,6.286-9.252,4.5-1.324-6.911-3.258-11.62-1.1-4.625-4.778-4.631-7.594,5.513-11.683,4.015-3.847-5.586-4.069-9.981-1.41-3.233,3.739-7.309,8.841-2.825,16.369-9.523,4.013-11.429,14.357-17.071,12.7-6.43,28.255-4.4c6.954.909,13.968,4.6,20.345,6.453,7.291,2.119,13.355,2.6,14.918,5.745,1.478,2.971-2.035,4.219-7.528,4.921-1.37.176-4.152-1.623-5.962-1.5-3.022.208-3.785.616-4.142,2.21s2.138,3.818,4.142,4.859,2.126-1.894,5.177-1.5,3.759,2.339,6.462,1.5,1.936-3.644,4.348-4.859,4.434.975,6.232-1.392-2.222-5.827-.184-7.846,6-.692,7.426.292-6.086,5.018-1.126,4.888,10.956-4.918,19.51-6.27,8.663.826,14.138,0,2.788-4.816,8.809-4.958,13.477,6.849,15.275,4.388-7.6-6.618-7.425-10.425,5.355-6.6,9.5-3.5,4.891,8.5,8.283,11.924-2.053,6.274,0,9.139,6.311,3.8,8.961,1.714,2.57-7.212,0-9.282-2.881,1-5.07-2.035-7.786-6.679-4.07-8.64,16.547,1.143,17.634.136-4.975-4.435-3.229-6.163.627.8,9.048-1.1c1.363-.306.027-1.089,1.5-2.571s1.846-2.637,4.391-3.356a53.089,53.089,0,0,1,11.389-2.035c3.18-.038,4.632,1.337,6.6.643,7.578-2.669,3.036-5.548,9-6s7.245,3.137,14.648,4.849,11.355-4.944,15.564,1.134-6.483,5.833-5.971,8.417,4.481.773,7.685,2.653,7.05,4.934,6.375,5.622l-.091-.035s-7.236-2.852-12.366-2.883-3.1.33-6.948,2.1-.769-5.081-7.8-1.922-1.235,4.815-2.06,7.7-1.173,1.405-.521,4.133,4.019,3.775,2.114,6.783-8.929,5.846-9.229,4.471c-.137-.626,3.253-1.576,4.6-7.563,1.484-4.986,2.2-10.052-1.1-14.839s-4.926-5.133-9.281-4.338-5.195,4.191-9.033,7.322-6.7,2-5.788,5.731,7.134.591,8.511,9.487,2.177,7.533-3,26.1c-1.7,6.107-.739,11.328-8.6,20.73-3.531,4.222-8.947,5.3-14.66,9.523s-3.645,1.143-8.308,7.83-3.186,11.291-11.023,19.385-15.284,6.35-19.754,11.382,1.874,8.749,1.874,8.749l5,4.283a3.308,3.308,0,0,1,3.09.963,2.873,2.873,0,0,1,.321,3.784c-.772,1.365-3.145-.417-3.411,1.676s3.932,2.689,4.518,6.946.869,8.207-3.855,9.122-13.709-3.409-14.959-5.266,4.977-5.571,3.427-11.406-6.641-6.98-7.39-11.121-3.287,1.779-7.028,3.263-2.993,1.039-7.938,2.671-4.218,1.988-11.671,2.417-10.963,2.389-17.2-1.674-7.988-2.063-11.853-1.285-1.508,4.1-3.606,4.784-2.352-1.846-4.273-1.357.273,1.827-3.462,3.106-4.377.21-6.712.179S-5960.574,1325.7-5962.569,1324.028Z" />
      <path id="eu" class="continent" data-name="Path 2"
        d="M-5946.084,1336.263c-1.338.919-.843,3.625-3.013,3.988s-2.839-1.175-5.665-2.539-5.639-1.847-5.639-2.916.975-2.852.376-5.388-3.865-3.222-2.771-4.754,8.033-1.622,8.033-1.622a3.686,3.686,0,0,0,2.938-.193c1.382-.805.843-2.2,2.592-3.029s4.774,1.083,4.774,1.083a4.568,4.568,0,0,1,2.917-3.986,17.658,17.658,0,0,1,8.846-1.167c3.014.243,2.431,1.556,3.208,2.139s2.911,2.457,8.5,3.04,8.463-.7,13.92-1.7,6.645-2.6,7.909-2.31,5.79-1.982,6.957-2.177,4.229-4.35,5.84-3.948,2.311,3.548,4.8,6.61,4.064,2.554,4.38,5.494-1.422,4.135-2.518,6.626-1.954,2.155-1.027,4.028,13.767,6.3,16.177,5.336,2.43-10.11,2.236-10.6-4.077-3.16-4.077-4.813,3.422-.555,3.758-2.295.443-4.05-2.417-4.663-3.5-1.007-5.718-4.187-7.284-4.235-2.655-8.816,12.42-3.511,20.336-11.839,3.254-11.7,11.967-21.272,15.358-8.02,22.885-17a28.238,28.238,0,0,0,6.584-19.116s5.011-16.41,3.936-25.386-9.088-6.059-8.952-10.177,2.835-2.6,6.841-6.372,3.644-5.837,7.829-6.494,7.456-.01,10.095,4.653,1.38,10.262.262,15.98-4.732,6.891-4.732,6.891,9.757-2.416,10.07-5.978-3.662-6.672-3.662-6.672l2.3-4.436s-2.713-1.851-1.81-3.9a6.251,6.251,0,0,1,5.525-3.431c2.417-.132,4.144,2.9,4.144,2.9a13.1,13.1,0,0,1,8.265-2.432c5.21.123,12.576,2.923,12.576,2.923s-6.372-5.4-6.328-5.579,2.534-1.666,7.7-2.182a90.882,90.882,0,0,1,12.971.117s-2.168-3.672,0-5.149,8.675-.759,8.675-.759l.015,0a155.711,155.711,0,0,1,19.211-3.6c8.465-.841,7.715.92,14.649.235s9.674-1.435,14.76-4.425,8.518-2.082,14.038-1.5,5.906,3.662,8.042,3.826,13.092-2.062,19.171-.7,3.964,4.2,1.553,7.081-11.2,4.442-11.2,4.442,43.738,4.5,45.673,3.918,2.526-4.345,5.526-4.26,13.541.5,18.636,3.213,1.744,7.657,1.744,7.657a14.611,14.611,0,0,0,7.141.386c3.253-.879.725-2.565,5.037-2.64s4.472,1.92,4.472,1.92l19.615-.69s-.932-3.355.863-4.027,35.006-1.433,40.292-.155a8.021,8.021,0,0,1,6.09,6.084s17.988-.52,28.042,1.037,12.173,5.192,12.173,5.192,30.456,34.133,31.5,35.824-2.336,3.32-6.474,3.852-6.269-.8-9.815-.331-.89,1.389-4.488,1.616-6.651-.95-9.332-.018.146,2.316-1.393,3.745-4.764,1.972-4.764,1.972a9.506,9.506,0,0,1,3.785,3.355,5.994,5.994,0,0,1,.6,5.509c-.659,1.79-2.234.521-3.331,1.631s-.091,2.679-1.628,4.491a11.413,11.413,0,0,1-4.52,2.757,26.667,26.667,0,0,1-2.386,3.08,6.555,6.555,0,0,1-2.049,1.52,12.714,12.714,0,0,0-2.482,1.149c-.9.616.633,1.541.35,2.363s-1.483.925-1.483.925a13.312,13.312,0,0,0-2.945,1.844c-1.273,1.109-.61,1.343-1.969,1.991s-2.6,2.3-3.465.6.108-4.44-.385-7.479-1.254-1.2-1.65-5.2-1.193-6.573.138-10.384-1.216-1.078,6.487-6.606,22.857-13.8,24.326-15.507,1.027-2.677,0-3.17-4.107,1.2-4.107,1.2-4.517,5.05-7.926,5.543-2.466-2.457-6.316-3.35-4.966-.889-7.607,0-.7,1.723-2.958,3.557-3.672,2.094-4.822,4.147,2.551,3.674-.925,4.363-12.981-1.609-12.981-1.609a61.637,61.637,0,0,0-6.89-.879c-1.972,0-13.828-.687-24.131,1.038s-10.548,7.5-17.209,11.607-10.093,4.663-9.436,4.828,2.916,3,5.586,4.436,2.941,1.549,5.093,1.314.434-2.254,3.515-2.254,8.807,2.254,8.807,2.254,3.36-2.18,4.8-1.81.953,3.289.953,3.289a16.193,16.193,0,0,0,.128,7.065c.945,3.738,3.843,4.578,2.784,8.069s-5.658,6.566-7.413,5,.767-7.4-.531-10.669-2.2-3.555-3.862-1.075.871,4.485-2.409,10.438-10.712,13.373-10.712,13.373-6.9,8.284-11.907,10.748-3.975-1.467-8.021-.294-6.838,2.462-7.825,5.4.426,2.448-.706,4.228-1.913,1.778-3.822,2.894-1.964-1.33-3.3,1.7,3.545,2.949,5.325,7.441,2.16,6.814.888,10.137-3.668,1.622-5.928,3.009-1.737,1.815-3.114,2.45-1.75.205-2.5-1.062-.475-1.986,0-3.231a3.433,3.433,0,0,1,1.9-1.749s.822-.206.6-2.318-.511-4.977-1.674-5.689-2.511,1.093-3.812-.662.563-4-1.394-6.361-2.647-2.977-5.807-2.323-4.843,4.616-6.812,3.963.484-4.809-1.483-5.985-3.719.3-5.316,1.5-.485,1.926-1.07,3.291.21,1.472.958,3.734-.125,2.412,1.225,2.544,1.211-2.368,3.787-1.863,6.791,1.412,5.447,4.2-6.655,4.226-9.51,6.653-1.908,3.056-1.908,3.056,6.349.077,8.7,3.147.938,4.047,1.453,9.191,1.475,1.628-.725,12.2-25.3,25.489-29.935,29.161-10.348.515-11.528,2.939,1.78,2.829,1.25,5.506-.946,4.931-3.4,5.663-4.9-.116-5.15-2,2.646-3.17,3.688-5.881,1.649-3.756,0-4.712-6.6.887-6.6.887-6.169,3.848-7.819,7.623,8.733,11.92,11.644,20.022,0,12.385,0,12.385l-7.331,7.2s-6.328,6.312-8.192,5.648,3.463-7.283.214-7.6a9.135,9.135,0,0,1-5.292-2.467l-1.39-5.182s-5.166-3.777-7.978-3.462-3.27,4.725-3.27,4.725-.153,7.22-1.543,9.527-4.111-.65-4-2.649,3.756-8.786,2-13.323c-.917-2.373-3-3.121-4.638-5.649s-.291-3.837-1.934-4.461c-3.445-1.309-6.613,1.065-9.225,0s-4.362-20.879-8.889-23.033-7.748-.286-18.494,1.214c-4.761.664-7.2,8.224-12.135,13.289-5.715,5.865-8.649,4.606-12.387,10.562s0,5.964-2.564,13.26-4.957,20.5-10.873,13.544-13.222-36.362-12.79-41.379-4.8-6.824-4.8-6.824-3.049.87-8.341-4.106-8.1-16.224-12.827-15.8-20.794,1.247-28.978-.87-2.229-4.319-4.084-6.219-2.5-.775-3.335-.425,1.229,1.777-1.74,2.012-6.028,1.593-11-2.055-4.682-6.48-9.175-9.425-6.592-2.824-7.212,0,3.1,5.394,5.355,9.639,3.674,7.342,3.674,7.342.682,3.732,4.252,4.332,10.029-1.931,10.029-1.931,3.093-4.553,5.462-3.447,4.342,4.5,7.3,7.2,3.41,1.693,4.546,4.106,1.485,2.61,0,5.543-3.471,3.878-4.766,6.437,1.985,1.565-1.373,4.916-12.059,8.487-12.059,8.487-4.543.115-6.945,1.379-1.017,2.666-2.66,3.677-9.361,3.964-16.375,7.06-7.782,4.373-11.682,5.325-3.918-1.517-3.918-1.517v-6.572a28.527,28.527,0,0,0-1.39-10.742,31.309,31.309,0,0,0-6.066-9.352,21.924,21.924,0,0,1-4.551-4.549,33.054,33.054,0,0,1-3.411-6.446,27.181,27.181,0,0,0-2.273-7.477c-1.738-3.475-2.624-2.7-4.678-6.425s-2.646-4.047-4.6-7.87-1.4-5.2-2.636-5.84-.4,3.274-2.312,3.274-5.354-3.274-5.354-3.274a73.9,73.9,0,0,1-1.638-7.213c-.41-2.826-1.279-2.784,1.509-4.206s5.975.614,8.607-2.1.2-5.411,1.488-8.9,1.878-3.074,2.462-5.309a5.452,5.452,0,0,0-.127-3.633s1.33-2.619-.285-3.427-3.949.056-6.112.912-1.488,1.475-2.541,2.514a4.57,4.57,0,0,1-5,.575c-1.969-.863-1.646-2.626-2.876-4.027S-5944.747,1335.344-5946.084,1336.263Z" />


      <path id="af" class="continent"
        d="M474.514,255.876c-4.464-.631-8.805-2.145-13.57-3.408-3.581-.631-8.345-2.508-11.611-3.786-4.165-1.562-6.862-5.663-11.327-5.348-6.563.631-3.881,4.733-5.663,8.819-2.682,7.257-6.247,0-10.112-1.562-1.5-.631-3.281.316-4.48-.316-1.154-.533,27.837,13.743,2.286-4.2-.568-2.023-4.676-6.063-17.861-13.2-3.316-2.347,3.469,10.353,1.21,10.268l.081.039-.308-.165,2.945-2.009c-1.483-1.246-7.709-.515-8.009-2.708-.6-2.524-24.308-12.4-40.212-7.556-3.565,1.893-6.263,4.417-10.712,3.471-6.263-1.262-5.064-2.209-9.229,3.155-3.565,4.733-9.244,6.61-11.011,12.6-1.183,3.77-.6,8.172-3.581,11.327-2.682,2.84-6.247,5.663-8.929,8.5-1.5,1.246-3.881,2.524-4.764,4.4-1.183,1.877-.3,3.786-.9,5.348-1.783,4.4-6.547,5.348-7.746,10.081-.9,4.417,1.2,9.465,1.783,13.551.6,5.364-.9,8.188-2.082,13.236-2.082,8.5-.3,17.953,4.764,24.578,3.281,4.4,7.746,7.572,10.428,11.974a43.5,43.5,0,0,0,8.345,11.327c5.364,5.348,9.528,4.717,15.192,2.84,4.764-1.909,9.528.631,15.176-.316,8.945-1.593,17.574-11.658,25.32-1.593,1.183,1.278,2.082,3.786,3.581,4.4,2.382.631,3.266-1.562,5.064-1.877,5.048,0,8.03,3.786,8.03,8.819v.631l-.3-.947c.6,9.449-6.862,15.428-.6,23.616,2.682,3.786,6.862,5.979,8.945,10.081,2.082,3.786,1.483,8.187,2.982,12.289,1.483,4.4,1.183,8.188,2.082,12.92,1.183,6.294,1.483,5.979-1.783,11.343a26.181,26.181,0,0,0,.3,29.91,23.7,23.7,0,0,1,3.8,14.415c0,5.979.082,6.393,3.647,12.671,2.382,4.1,3.281,8.5,5.064,12.92,1.783,4.1,4.764,7.257,5.364,11.974.6,4.417-1.483,9.134,2.4,12.6,3.565,2.824,7.746,0,11.91-.631,5.963-.947,13.693-1.578,18.773-5.364,3.281-2.824,5.064-7.241,8.046-10.712,3.281-3.471,6.847-5.979,8.629-10.712,1.183-3.155.9-7.241,2.082-10.4,1.783-4.4,5.947-4.4,9.244-7.556,2.382-2.824,2.682-5.979,2.082-10.081s-2.682-7.556-.9-11.642c1.483-3.77,6.247-6.925,9.528-9.134,4.464-3.155,10.128-5.995,12.21-11.343,1.783-4.1-.3-8.187-.9-12.6-.3-4.4.3-8.187-.9-12.289-1.783-4.733-1.783-5.663-1.5-10.4.3-8.819-2.966-17.952,6.563-22.985l-.3-.315c4.165-3.155,6.563-7.257,10.128-10.4,3.565-3.155,8.046-5.679,11.027-9.45,5.947-7.241,9.528-18.268,12.81-27.418.9-3.139,3.865-11.011-1.783-11.958-2.682-.316-7.446,5.032-10.712,5.348-2.982.315-8.046.631-11.027,0-6.547-1.262-4.464-4.417-5.947-9.45-1.783-6.626-10.428-7.257-13.709-12.6-1.783-2.524-.3-6.61-2.082-9.765-2.4-3.471-4.764-3.471-5.963-7.872-.6-3.155,0-6.61-.9-9.765-.9-4.4-3.881-5.663-6.547-8.818-2.4-3.471-3.281-6.941-4.764-11.027-1.2-3.455-4.165-6.61-4.764-10.4"
        transform="translate(113.141 1689.834)" />
      <path id="au" class="continent"
        d="M712.31,300.431c-4.922,2.587-5.821,13.693-7.146,18.662-.678,3.06-1.783,7.32-4.922,8.03-4.244.947-6.925-3.549-9.607-5.9-2.445-2.114-5.805-4.007-4.244-8.03.9-2.366,5.143-4.733,4.685-7.572-.663-3.549-6.484-1.183-8.929-1.877-2.445-.726-4.464-4.023-7.146-1.893-.9.726.221,2.6-.663,3.313-.883.947-1.783,0-2.682.221-2.9.726-3.581,0-5.584,3.549s-2.682,11.579-7.825,7.32c-2.019-1.641-1.12-3.3-4.023-3.77-2.682-.473-4.685,1.656-6.247,3.313-1.562,1.641-3.344,2.824-4.906,4.244-1.562,1.893-1.783,4.5-2.9,6.389-5.821-5.443-5.821,5.19-9.165,8.976-2.9,3.076-4.244,3.55-8.266,3.786-4.464.237-5.805,3.076-9.828,3.549-6.026.473-7.146-.71-9.386,5.206-1.12,3.06-3.8,5.427-4.922,8.5-.442,1.877.221,3.549,0,5.427-.442,1.893-1.12,2.366-2.019,4.023-2.445,4.244-.442,5.427.458,10.159.442,3.076-.221,6.373.221,9.449.221,2.13,2.224,5.19,1.783,7.556-.9,3.549-6.247,3.076-6.7,7.809-.662,9.686,14.734.237,18.331.457,3.345.237,6.247,1.893,9.607.71,4.023-1.183,6.042-4.259,10.506-5.206,9.386-2.13,16.3-12.052,26.582-5.663a48.4,48.4,0,0,1,5.364,4.244c2.019,1.893.9,2.6,1.357,4.969,1.783,7.556,4.906-1.183,8.708,1.183,1.12.947,1.783,8.5,2.24,10.159.678,4.244-2.019,7.32,2.682,8.74,2.019.473,4.906.237,6.925.473.678,0,1.783.71,2.461.473.883-.237,1.341-1.656,1.783-1.656,3.36-.71,6.042,1.893,9.608,0,1.562-.71,2.461-1.893,4.244-2.366,2.24-.473,3.581.473,5.805-.71,5.805-2.824,2.445-7.556,6.484-11.343,1.562-1.656,4.922-2.366,6.026-4.48.9-2.13-.442-3.313,1.341-5.443,3.123-4.007,6.026-3.549,7.825-8.5,2.9-8.266,9.386-12.762,8.929-22.685-.221-5.9-3.565-6.61-5.584-11.327-.678-1.42-.221-3.313-.9-4.5-1.12-2.366-2.445-2.366-3.565-5.19-.458-1.656-.458-3.786-1.341-5.443-1.12-1.877-3.344-3.06-4.685-4.717-3.123-3.549-2.019-7.793-2.461-12.51-.237-1.42,0-4.969-.9-6.389-1.12-1.877-3.8-1.656-4.922-3.549-1.562-2.6,1.12-9.686-1.562-10.4"
        transform="translate(252.722 1827.455)" />
      <g id="islands2">
        <path id="Path_2117" data-name="Path 2117"
          d="M625.289,254.248c-1.8-.836-3.234-3.187-5.032-3.786-2.666-.947-3.676,3.06-4.8,4.969-2.019,3.66-6.042,4.48-8.724,7.32-2.019,1.877-3.124,4.354-5.253,6.247-1.562,1.183-2.792,2.366-4.8,2.13-2.571-.347-3.234-.947-4.48,2.019-1.23,2.713-1.562,6.373.126,8.85,1.01,1.42,2.682,2.256,3.455,3.66.9,1.546.331,3.076.678,4.606.552,3.549,2.682,2.477,4.906,3.3,1.23.473,2.019,1.767,3.124,2.256,1.672.694,1.783.11,3.013-.473,1.672-.82,2.445-.458,4.244.726,1.909,1.294,3.912,2.824,6.026,1.057,1.909-1.641,1.451-5.08,1.451-7.43,0-2.839.457-4.133,2.571-5.79a5.217,5.217,0,0,0,2.682-4.133c.347-2.366.347-2.366,2.24-3.187,1.23-.473,1.451-.11,1.783-1.783.331-1.4-.331-2.95-.9-4.354-1.12-2.729-3.786-6.026-1.783-9.1,1.12-1.53,3.692-2,3.471-4.5-.221-2.366-2.335-1.767-3.912-2.477"
          transform="translate(282.853 1808.517)" />
        <path id="Path_2115" data-name="Path 2115"
          d="M580.078,267.5a33.437,33.437,0,0,1-5.7-5.774c-1.12-1.546-1.909-3.676-3.124-5.1-1.562-2-9.607-3.77-10.948-1.183-1.783,3.676,4.8,6.042,6.594,7.446,2.571,2.13,5.916,5.427,6.815,8.85.883,3.3-1.01,5.19,1.23,8.266,2.445,3.187,5.032,6.01,7.146,9.56,2.13,3.549,4.685,7.556,7.809,10.175,1.23,1.057,4.133,3.408,6.042,2.824,2.114-.71,2.335-3.3,2.335-5.19,0-2.713,1.231-7.919-.221-10.175-1.451-2.224-4.922-1.877-6.247-4.244-1.341-2.366,0-4.969-2.114-7.209-2.792-2.824-6.247-4.827-9.055-7.683-.221-.237-.552-.584-.773-.836"
          transform="translate(264.852 1810.729)" />
        <path id="Path_2116" data-name="Path 2116"
          d="M603.409,288.018c-2.13-.363-3.124,1.183-5.253,1.183-2,0-4.575-1.893-6.468-2.713-1.909-.836-3.344-1.53-5.253-.457-1.01.584-3.124,2.24-2.792,3.66.568,2.114,4.812,2.114,6.373,3.076,2.792,1.546,4.354,1.057,7.477,1.183,2.572.126,3.692,1.767,5.916,2.587,2.9,1.073,6.484.6,9.5,1.073,1.672.237,7.036,1.183,6.247-2.114-.552-2.366-3.912-1.42-5.253-2.713-.789-.71-.789-2.24-1.562-2.95a7.418,7.418,0,0,0-3.912-.947c-1.451,0-3.471.836-4.591-.82"
          transform="translate(278.482 1828.826)" />
      </g>
      <path id="us" class="continent"
        d="M345.724,487.506c5.143-6.847,15.633-1.656,20.319-8.5,2-3.076,2.9-7.32,4.244-10.633,1.562-3.549,4.023-7.556,4.244-11.579,0-5.663-4.244-14.166-1.341-19.372.9-1.641,2.445-2.366,3.786-3.549,2.24-2.366,1.783-3.786,2.9-6.61,1.578-4.259,6.042-5.443,6.7-10.159a34.993,34.993,0,0,0-.237-9.686,11.513,11.513,0,0,0-1.562-4.717c-1.783-2.366-1.783-1.183-4.244-1.42-3.8-.457-4.922-2.587-8.045-4.953a20.675,20.675,0,0,0-10.932-4.023l-4.023-.71a22.8,22.8,0,0,0-4.023,0c-3.565-.473-2.461-1.4-4.464-3.549a16.131,16.131,0,0,0-6.7-3.77c-3.124-.473-3.344,1.183-5.805,1.4-.221-1.4-.221-3.06-1.12-4.244l-.221-.71c-2.24-2.587-3.8-1.183-4.7-5.19-.221-1.183.221-2.6,0-3.549-.663-1.42-2.24-1.42-2.682-2.84-.9-2.366.442-4.969-.9-7.541-1.12-2.146-4.244-4.5-6.247-5.679-7.146-4.48-15.192.947-20.1-6.61-2.24-3.3-3.124-4.5-6.263-6.389-2.24-1.42-4.244-4.023-6.247-5.9-3.124-3.06-3.124-4.244-7.367-3.06a15.287,15.287,0,0,1-10.27,0,34.959,34.959,0,0,1-5.143-1.42c-1.578-.726-3.344-2.6-5.143-3.076-3.124-.457-4.685,3.549-7.809,2.366.221-.947,2.682-3.3,1.562-4.48-.678-.947-3.565.947-4.244,1.183-3.124,1.656-7.809,2.13-10.27,4.023-3.124,2.366-2,8.961-5.364,9.907-3.124.962-2.461-1.877-3.8-3.06-1.562-1.183-2.9-1.183-5.127-.694v.457c-2.9-1.42-5.127,2.366-8.266,1.656-2.461-.726-2.24-1.656-4.023-3.549-.9-1.183-2.682-2.114-3.581-3.55-1.562-2.84-.442-6.626.678-9.449,1.562-4.259,2.461-5.9.9-10.412-.9-2.114,0-2.366-2.682-3.549a9.186,9.186,0,0,0-5.584-.237c-2.019.237-7.588,3.313-9.166.237-1.562-3.06,4.244-11.816,5.143-14.876.678-1.909,3.8-6.626,2.682-8.5-1.12-2.114-7.825-.947-9.386,0-3.581,1.877-2.461,5.19-4.023,8.266-1.341,2.6-5.143,4.48-7.588,5.206-2.461.947-7.367-.237-9.844-1.42-3.786-2.366-2.682-5.9-3.786-9.686-1.12-4.259-3.581-6.847-2.461-11.579.9-3.549,3.581-6.137,4.244-9.923.678-4.023.458-6.389,3.581-9.213a49.82,49.82,0,0,1,8.266-5.916c4.464-3.06,6.689-1.183,11.611-.71,2.24.237,5.364.71,7.367-.947,1.341-1.183.663-2.366,2.461-3.313,1.578-.947,8.945-1.183,10.948-.237,1.783.694,2.461,2.366,4.007,2.824,1.578.473,2-.947,3.8.726,4.023,3.55-1.562,17.716,6.042,18.189,7.146.457,4.244-14.182,3.344-17.732-2.682-10.4,3.344-15.113,12.068-18.662,3.8-1.656,7.809-3.55,10.27-7.083,2.9-4.259,2.224-6.626,3.124-11.106,1.12-4.969,3.36-.947,6.484-3.549s5.364-6.847,7.825-9.923l.221-.473c2.461-2.84,4.7-.71,7.825-1.42,3.786-1.183,2.461-4.48,4.007-7.793,2-4.007,4.922-3.77,8.5-4.954,3.124-1.183,5.585-3.313,8.929-4.259,1.341-.694,8.266-2.366,4.7,1.656-.9,1.183-9.386,2.13-3.8,4.954,3.344,1.42,6.263-3.55,9.166-4.259,2-.694,7.809-.694,6.247-4.717-1.12-2.824-6.247-.473-7.825-3.3-2.24-4.023,3.8-5.206,4.7-7.556,3.124-7.32-17.211,1.893-18.315.947-2.682-2.366,4.023-6.61,5.805-7.32,3.124-.947,6.484.237,9.828-.71,3.581-.947,6.042-1.656,10.065-1.42,5.143.71,6.484,1.656,11.39-1.641,4.244-2.84,13.851-2.13,13.63-10.159,0-3.06-3.36-6.373-5.585-8.266-3.565-2.824-4.464-2.6-4.464-7.793,0-3.313.9-7.556-1.341-9.686-4.023-3.313-7.367,1.183-11.169,1.656a7.77,7.77,0,0,1-4.023-.237c-2.9-2.366.221-1.893.457-4.5,0-1.893-3.124-7.32-4.48-8.266-1.12-.947-13.173-2.13-15.413-.71-4.023,2.366-.9,7.793-3.8,10.4-2.019,2.13-8.046-.71-5.805,5.9.883,3.076,4.259,5.206,1.12,8.74-5.379,5.9-13.188.237-14.971,9.923-.442,2.84-.663,7.556-3.344,9.213-2.24,1.42-6.484-.237-7.588-2.6-2.461-5.663,4.023-5.663,4.685-9.213.9-4.717-5.364-2.6-7.809-3.076-2.682-.71-6.7-3.549-8.708-5.427-1.562-1.42-1.341-3.549-3.8-3.786-1.783,0-3.581,2.6-6.026,1.656,0-3.77,3.344-6.373-1.8-7.556a7.929,7.929,0,0,1,.9-1.893l-.663.473c1.12-2.366.221-4.48,2.24-6.137,1.341-1.183,2.9-.237,4.464-.947,3.344-1.656,4.7-4.717,8.945-5.427,4.007-.71,6.468-2.366,10.27-4.717,3.36-2.13,6.7-2.6,10.286-4.5,2.682-1.656,4.922-5.427,7.588-6.373,3.124-1.183,6.925,1.42,10.286.473,2.461-.71,8.487-5.663,9.828-7.793,3.124-5.206-2.9-3.313-5.805-2.84-3.8.71-4.464,1.656-7.588,3.786-5.143,3.786-3.344-.473-5.364-3.313-1.341-1.893-3.124-.947-3.8-3.313-.221-1.42,1.341-2.824.9-4.259-1.12-4.48-4.7-1.183-6.468.71-.457.237-.221,1.656-.678,2.13-1.12.947-2.24,0-3.344.473-2.019,1.183-1.578,1.893-2.445,4.023-2.019,4.954-3.36,3.3-7.825,4.244-2.224.473-2.445,1.183-5.143,1.183-2.682-.237-5.585-1.42-8.266-.947-2.019.473-2.682,2.13-5.143,1.42-1.341-.473-2.445-1.893-4.007-2.6-7.6-3.076-15.87,7.32-24.121,2.6-2.9-1.893-2.9-4.733-6.7-5.9a25.033,25.033,0,0,0-6.042-1.42c-2.887-.473-6.925.473-9.607-.473s-2.9-3.076-6.484-3.313a26.107,26.107,0,0,0-9.607.71c-4.244,1.656-6.042,3.076-10.506,3.549-4.244.473-5.585,1.893-9.607.473-1.12-.473-4.244-.947-5.364-1.656-1.341-1.183,0-2.366-2.24-3.313-2.461-.947-7.367,0-9.828,0-4.023,0-8.266.237-12.052-.947-3.124-1.183-5.364-2.366-8.945-2.13l.221.237c-3.786.473-6.925,1.656-10.712,1.893-3.8,0-6.925,0-10.506,1.42-3.565,1.42-7.588,2.84-11.39,4.007-2.019.71-10.932,1.183-11.611,2.6-1.562,2.824,4.464,4.259,4.464,6.373,0,1.893-6.026,4.48-7.588,4.023-1.12-.237-2.224-2.13-4.244-2.6-2.24-.237-3.124.237-4.922,1.183-1.562.71-5.143,3.076-5.585,4.969,3.344,1.42,6.7.71,10.27.947,7.588.71-.678,3.313-3.581,4.5-6.484,2.6-21.9,2.84-23.458,12.526-1.341,6.61,4.244.473,6.026,1.893,2.019,1.656-6.026,4.5,0,6.137,1.562.237,9.386-3.3,6.026,1.183-1.341,2.13-7.146,2.6-9.386,3.786-1.12.473-7.825,3.549-7.825,5.206,0,4.007,9.386-1.183,10.948-1.656,4.906-1.183,7.367-1.893,11.39-5.206,3.8-3.3,8.724-4.007,12.51-6.847,3.36-2.366,5.805-4.969,9.607-6.137,3.8-1.42,4.464,0,1.562,2.6-1.783,1.42-7.146,3.549-3.124,4.969,3.124.947,7.146-3.549,9.386-4.969,3.344-2.13,5.585-4.023,9.607-2.6,3.581,1.183,7.146,2.13,10.727,3.313,7.146,2.6,11.169,10.869,10.27,18.9-.442,3.313-2.9,6.61-2.682,9.923.442,3.313,3.786,5.679,5.364,8.5.9,1.42,3.786,9.213,1.783,10.4-2.461,1.183-3.124-6.626-4.464-7.556-3.124-1.893-4.906,1.42-3.565,4.023,1.562,3.549,4.023,2.824,2.24,7.556a73.939,73.939,0,0,1-5.143,9.45c-2.24,4.023-5.805,5.206-8.487,8.5-2.9,3.313-.457,7.32-2.24,10.869-1.12,2.6-5.143,3.076-5.585,6.389-.221,2.114,1.783,6.137,2.461,8.5a38.441,38.441,0,0,1,.663,7.083l-.221-.947c.221,2.114-.663,6.847.678,8.266.9.947,2.9.694,3.786,1.183,2,1.42,1.783,2.114,2.682,4.007,1.12,3.313,2.9,6.137,2.461,9.686-.221,1.183-1.12,3.076-.883,4.259.442,2.366,1.783,1.641,2.461,3.3,1.783,4.023-1.562,6.137-1.341,9.213.442,3.076,3.565,2.6,5.127,4.023,1.783,1.42,1.562,2.366,2.24,4.717.442,2.13,2.24,7.809,5.364,8.03,4.244,0,0-5.663-.678-7.541-1.12-2.6-.9-5.206-1.562-7.809-.9-2.824-3.124-4.969-3.8-7.793-.221-1.42.221-2.84,0-4.023-.678-1.877-2.019-2.366-2.682-4.023-.883-1.877-1.12-4.717,1.578-5.19l.442-.237c4.7-.71,5.143,3.3,5.143,6.847,0,3.786.457,5.206,2.461,8.74,2,3.06,2.224,6.389,3.565,9.45,1.783,3.786,5.143,6.137,7.146,9.923,1.341,2.6,4.244,6.373,4.464,9.45.221,3.549-2.9,5.19-1.562,8.74,1.341,4.007,8.03,5.9,11.169,8.961,3.581,3.549,7.367,3.786,11.847,5.427,4.685,1.42,6.263,1.656,10.506.473,4.007-.947,8.487-.237,10.712,3.3.663,1.42-.221,2.366,1.12,3.786.9.947,2.9,1.656,4.244,2.114,3.344,1.909,6.468,2.145,9.828,3.329,3.581,1.183,2,3.549,4.7,5.427,1.12.726,2.9-.457,4.023.726,2,2.366-.678,1.877-1.12,3.55-1.12,4.938,2.24,5.427,5.364,7.793,2.682,1.877,4.685,5.9,8.266,6.847,4.244.962,7.588-7.32,10.27-5.19l-.442-.473c2.224,1.893,3.344,6.389,4.244,8.992,1.12,2.824,1.12,5.19.9,8.266-.221,4.717-.678,7.793-4.023,10.869a11.693,11.693,0,0,0-3.344,3.3c-.221.457.442,1.641,0,2.114-.678.947-1.783.71-2.24,1.42-3.581,3.786-6.263,9.686-3.36,15.113a12.614,12.614,0,0,0,2.24,2.6c.442,2.84-.457,1.656-2.019,3.076-2.224,2.13-2.224.221-2.461,3.77a18.953,18.953,0,0,0,.457,4.969c.663,4.717,3.565,3.313,5.805,7.083,2.9,4.5,3.124,8.992,6.925,13,6.263,6.61,6.7,18.9,14.734,24.326,4.023,2.6,7.809,1.893,11.39,5.9,2,2.13,6.026,4.5,6.925,7.083.663,2.366.221,6.373.457,8.74,0,3.076.221,6.137.221,9.213v3.076L262,484.9c-.221,6.137,2.019,11.579,2.682,17.479.678,6.373-.663,13.236.221,19.846a81.779,81.779,0,0,1,.9,13c0,4.007-2.019,7.32-1.562,10.869.221,3.55,2.666,6.61,3.124,10.16.221,2.13.221,5.206,1.341,7.083,1.12,2.13,1.341,1.183,2.9,2.366,6.263,4.969,5.364,17.243,8.708,24.326,1.341,3.313,1.562,5.9,2.461,8.976,1.12,3.786,4.906,7.556,7.146,11.106s4.244,5.427,8.266,3.786c1.562-.473,1.783-2.84,4.244-1.42,1.578.946,1.783,3.549,2.9,4.953,1.8,2.84,3.8,3.313,6.925,3.076,1.341,0,2.9.71,3.565-.71,1.12-2.84-1.783-2.13-3.124-2.84-2.9-1.42-5.364-2.84-7.146-5.9-.9-1.656-1.12-3.313-2.24-4.733-1.562-2.366-2.445-2.13-2.445-5.427.221-7.556,8.929-10.4.663-15.349-2.9-1.893-5.127-3.313-2.461-6.847.9-1.42,2.682-1.42,3.344-3.076.457-1.183-.442-3.076,0-4.5,1.12-4.023,4.023-3.549-.221-6.373-3.124-1.893-5.364-4.733,0-4.259,3.344.237,4.244,1.656,4.464-3.313,0-3.77-2.445-7.083,2.9-7.32,3.581-.237,6.925,1.893,9.828-2.366,1.783-2.366,1.12-6.61,0-9.213-1.562-3.55-6.026-6.61.221-5.9,2.682.237,4.244,1.42,7.367,0,3.565-1.183,2.224-1.183,3.124-4.023.442-1.183.663-2.13,1.12-3.3.442-.947,1.562-1.893,2.019-3.786.9-4.244,1.562-6.847,4.464-10.159,4.464-4.5,6.484-7.083,5.584-13.945-.663-6.137-.663-6.373,3.581-10.4"
        transform="translate(-69.822 1701.455)" />
      <g id="islands1" transform="translate(-176.44 366.436)">
        <path id="Path_1265" data-name="Path 1265"
          d="M324.36,88.991c-1.909-.473-3.8.947-5.711.836a59,59,0,0,0-6.578.82c-3.013.237-6.247-4.969-8.929-.363-1.451,2.6,1.01,1.767,2.351,2.713,1.783,1.294.11,2.587.442,4.48.678,3.187,4.464,2.13,6.594,2.13,2,.126,3.344,2.477,5.364,1.183,1.12-.71,1.672-2.13,2.887-2.824a19.408,19.408,0,0,1,4.244-1.183c1.562-.363,4.811-1.767,5.805-3.313,2-3.187-3.912-6.373-6.468-4.606"
          transform="translate(315.902 1320.61)" stroke="#f4faee" stroke-linecap="round"
          stroke-linejoin="round" stroke-miterlimit="10" stroke-width="1.5" />
        <path id="Path_1283" data-name="Path 1283"
          d="M313.284,54.577c-4.48.473-8.5,1.42-12.967,1.42-5.805-.237-10.27-.71-15.413,1.183-3.786,1.183-7.367.473-11.169,1.183-4.464.71-6.925,3.786-10.507,5.663-4.244,2.13-25.02-.71-23.458,7.083,2,10.633,22.8-1.656,26.361,5.663,1.12,2.6-1.12,8.03-.678,11.106.442,2.6-1.12,1.641,1.12,3.06,1.562.947,4.023-.71,5.143,1.656.9,2.6-1.12,1.183-2.019,2.13-1.562,1.42-1.12.473-2.224,2.84-.9,1.893.221,2.13-1.578,3.786-1.12,1.183-3.344,1.42-4.464,3.076-4.685,5.663-1.341,17.006,1.578,22.685,2,3.786,4.244,2.366,8.03,4.007,1.783.71,2.019,2.84,4.922,2.13,2.019-.473,3.124-2.6,4.244-4.5.678-1.656.9-3.076,2.461-4.259,1.578-1.183,3.124-.71,4.7-2.366,2.445-2.84,2.224-6.847,6.026-8.976,3.565-2.13,6.484-.237,10.27-.237,3.36-.237,5.805-3.313,8.724-4.717,2.682-1.42,4.464-4.023,7.146-5.443s5.805.473,8.945-.237c2.9-.473,6.247-2.13,9.386-3.076,2.224-.71,4.464-1.183,5.364-3.786-.9-.473-4.464-1.183-4.685-1.877-.9-1.893,1.12-2.84,2.461-2.84,2.24,0,4.922,5.663,6.7,2.13,2.019-3.77-5.364-5.663-2.9-8.266,1.562-1.42,6.484-.237,8.708-1.656,1.562-.947,2.9-3.076,4.023-4.717,1.12-1.893.9-4.007,1.783-5.443.678-1.183,2.9-1.42,3.36-2.6.883-1.893-.9-2.84-.237-4.48,2-4.48,18.094-4.023,18.536-7.793.221-4.717-12.51-1.893-14.75-1.893-5.143-.237-8.046-3.786-13.188-4.259-8.251-.473-16.754.473-24.783.473a49.114,49.114,0,0,0-14.529,1.893"
          transform="translate(279.51 1299.51)" stroke="#f4faee" stroke-linecap="round"
          stroke-linejoin="round" stroke-miterlimit="10" stroke-width="1.5" />
        <path id="Path_1284" data-name="Path 1284"
          d="M279.005,53.653c-6.042.71-10.712,3.076-16.974,1.893-6.042-.947-11.611-2.6-17.653-.947-3.344.947-9.166-.237-11.832,1.183-6.042,3.3,3.124,2.84,4.244,3.786,4.685,3.77-5.364,7.556-8.045,7.793-4.244.473-8.046-.237-10.506,3.549-.9,1.183.221,2.13-.9,3.076-1.341,1.183-4.244.237-5.585-.237-2.682-.947-4.922-3.549-7.146.237-2.24,4.007,1.341,4.48,4.023,4.953,4.244.71,6.247,2.366,10.491,1.656,2.445-.473,8.487,0,10.049-2.6,2.9-4.244-3.36-3.076-5.585-3.549.457-5.427,10.712-1.893,14.072-2.84,3.344-.947,6.484-3.77,9.828-5.19,6.7-2.84,13.409-2.84,20.319-4.259,3.124-.71,6.042-2.366,9.386-3.076,2.9-.71,6.247,0,9.166-1.183,3.8-1.42,3.581-3.786-.442-4.717-2.224-.473-4.922.237-6.925.237"
          transform="translate(258.843 1300.198)" stroke="#f4faee" stroke-linecap="round"
          stroke-linejoin="round" stroke-miterlimit="10" stroke-width="1.5" />
        <path id="Path_1285" data-name="Path 1285"
          d="M235.94,77.22c-2.461,0-5.805.71-8.045,0-2.019-.473-2.682-2.13-4.244-3.076-3.124-1.893-5.143-.947-8.266.947-.9.71-2.9,2.824-4.244,2.6-2.445-.71,0-1.893-.221-3.313-.678-1.893.442-1.893-2-2.366-2-.473-3.565.947-4.922,2.13-2,1.42-5.585,4.48-5.585,7.32.221,5.19,6.925,2.6,10.065,2.13,4.906-.71,12.052-1.656,16.3,1.656,2.461,1.893,5.585,4.717,4.7,8.266-.457,1.656-3.581,7.32-4.922,8.03-3.565,1.656-8.929-2.13-12.289-.237-4.906,2.824,2.9,4.007,5.143,4.007,5.143.237,6.7.947,9.166,5.443,1.12,2.366.678,3.3,3.8,4.244.883.237,3.565.71,4.244,0,2.461-2.13-4.023-8.266,2.224-7.083,2.682.237,4.685,4.5,7.809,1.42,4.7-4.259-3.786-6.61-3.124-10.159.9-4.5,7.367-.71,8.724.71,2,1.893,2,3.549,5.364,1.183,1.783-1.183,4.023-4.48,3.565-7.083-.9-3.549-3.8-2.84-6.247-3.549-8.045-1.893,1.341-6.626-4.244-11.343-1.783-1.42-11.39-4.007-12.51-1.893"
          transform="translate(255.671 1311.116)" stroke="#f4faee" stroke-linecap="round"
          stroke-linejoin="round" stroke-miterlimit="10" stroke-width="1.5" />
        <path id="Path_1286" data-name="Path 1286"
          d="M220.579,56.368c-2.24.473-3.36,1.893-5.143,2.6-1.562.71-4.244-.237-5.364.473-6.484,3.549,4.007,4.733,6.484,4.259,2-.237,10.948.473,11.832-1.42,1.12-2.13-5.805-7.556-7.588-5.9"
          transform="translate(261.203 1301.963)" stroke="#f4faee" stroke-linecap="round"
          stroke-linejoin="round" stroke-miterlimit="10" stroke-width="1.5" />
        <path id="Path_1287" data-name="Path 1287"
          d="M196.665,90.466c-2.461,0-2.224,1.42-3.344,2.6-.221.473-2.9,3.549-2.9,3.786-1.341,4.969,4.023,1.42,6.042,1.183,2.461-.237,7.809,3.06,7.146-2.366-.457-2.6-4.259-7.083-6.7-5.443"
          transform="translate(250.932 1321.486)" stroke="#f4faee" stroke-linecap="round"
          stroke-linejoin="round" stroke-miterlimit="10" stroke-width="1.5" />
        <path id="Path_1288" data-name="Path 1288"
          d="M190.823,67.218c-3.581-.947-4.464,1.42-7.367,2.366-4.244,1.183-3.581-2.13-6.042-3.77-4.244-2.84-18.773,3.77-11.39,6.373,3.581,1.183,8.266-.947,12.289-.237,2.9.71,4.464,1.656,7.588.947,1.341-.237,7.146-.71,8.046-1.656,2.461-2.6-1.578-4.007-3.581-4.007"
          transform="translate(235.777 1307.188)" stroke="#f4faee" stroke-linecap="round"
          stroke-linejoin="round" stroke-miterlimit="10" stroke-width="1.5" />
        <path id="Path_1289" data-name="Path 1289"
          d="M198.4,65.279c-3.8,0-3.8.237-6.7,2.13-2.445,1.42-5.364,2.13-1.341,3.77,1.562.473,6.026.237,7.367-.473-.678.473,2-3.786,1.783-3.076.221-1.656.221-2.84-2-2.84"
          transform="translate(249.87 1306.998)" stroke="#f4faee" stroke-linecap="round"
          stroke-linejoin="round" stroke-miterlimit="10" stroke-width="1.5" />
        <path id="Path_1290" data-name="Path 1290"
          d="M193.424,71.3c-5.143-1.893-5.805,1.42-9.386,3.076-1.783.71-3.344-.71-4.023,1.893-.442,2.13,1.341,2.6,2.682,3.549,4.023,3.076,4.023.473,7.809-1.893,1.341-.71,2.9-.237,4.023-1.42,1.341-1.42,1.562-4.007-.442-4.717"
          transform="translate(245.007 1310.428)" stroke="#f4faee" stroke-linecap="round"
          stroke-linejoin="round" stroke-miterlimit="10" stroke-width="1.5" />
        <path id="Path_1291" data-name="Path 1291"
          d="M200,59.893c-1.12,0-5.805-.947-6.484-.237-1.783,1.42,1.12,4.717,2.461,5.19,1.341.71,4.685.237,5.805-.947,1.578-1.656,1.578-4.259-1.12-4.259"
          transform="translate(252.519 1303.88)" stroke="#f4faee" stroke-linecap="round"
          stroke-linejoin="round" stroke-miterlimit="10" stroke-width="1.5" />
        <path id="Path_1292" data-name="Path 1292"
          d="M202.556,70.79c-4.244,0-4.906,0-7.809,2.6-1.341.947-5.364,3.313-1.578,4.733.678.237,7.367-1.893,8.266-2.366,1.783-.947,4.023-4.259.678-4.953"
          transform="translate(251.73 1310.463)" stroke="#f4faee" stroke-linecap="round"
          stroke-linejoin="round" stroke-miterlimit="10" stroke-width="1.5" />
        <path id="Path_1293" data-name="Path 1293"
          d="M220.533,71.361c-4.023,1.183-1.341,5.206,1.783,3.786,3.124-1.183,2.461-4.733-1.12-4.023"
          transform="translate(267.275 1310.602)" stroke="#f4faee" stroke-linecap="round"
          stroke-linejoin="round" stroke-miterlimit="10" stroke-width="1.5" />
        <path id="Path_1294" data-name="Path 1294"
          d="M204.513,61.064c-4.922.237-1.12,5.663,2.224,3.549,3.124-1.893,1.12-4.717-1.783-3.786"
          transform="translate(257.834 1304.603)" stroke="#f4faee" stroke-linecap="round"
          stroke-linejoin="round" stroke-miterlimit="10" stroke-width="1.5" />
        <path id="Path_1295" data-name="Path 1295"
          d="M200.6,64.547c-1.12,1.656-.678,4.969,1.783,3.313,2.682-1.42.221-4.5-2.224-3.076"
          transform="translate(256.601 1306.783)" stroke="#f4faee" stroke-linecap="round"
          stroke-linejoin="round" stroke-miterlimit="10" stroke-width="1.5" />
        <path id="Path_1296" data-name="Path 1296"
          d="M197.769,67.686c-2.461,1.893.442,3.786,2.019,2.6a1.706,1.706,0,0,0-1.341-3.076"
          transform="translate(254.75 1308.361)" stroke="#f4faee" stroke-linecap="round"
          stroke-linejoin="round" stroke-miterlimit="10" stroke-width="1.5" />
        <path id="Path_1297" data-name="Path 1297"
          d="M183.066,61.378c-4.023-.473-7.367,2.6-2.461,4.023,3.344.947,7.809-3.313,3.124-3.786"
          transform="translate(243.975 1304.999)" stroke="#f4faee" stroke-linecap="round"
          stroke-linejoin="round" stroke-miterlimit="10" stroke-width="1.5" />
        <path id="Path_1298" data-name="Path 1298"
          d="M187.06,64.973a3,3,0,0,0-1.12,2.366c2.24.947,4.922-2.366,1.8-2.84"
          transform="translate(248.469 1306.83)" stroke="#f4faee" stroke-linecap="round"
          stroke-linejoin="round" stroke-miterlimit="10" stroke-width="1.5" />
        <path id="Path_1299" data-name="Path 1299"
          d="M165.237,64.059c-4.7-.237-9.386,3.786-2.9,3.549,1.12,0,3.8,0,4.7-.71,1.783-1.42,1.12-4.007-1.562-3.076"
          transform="translate(232.998 1306.325)" stroke="#f4faee" stroke-linecap="round"
          stroke-linejoin="round" stroke-miterlimit="10" stroke-width="1.5" />
        <path id="Path_1300" data-name="Path 1300"
          d="M189.517,73.171c-2.682-.947-3.581-.237-5.584.947-3.124,2.13-1.341,1.893-5.127,1.183-2.24-.473-4.464,0-6.925-.473-1.8-.473-3.124-1.893-4.922-2.366-2.9-.473-4.464,2.13-6.91,3.076-2.019.71-4.7-.237-6.7.71-2.682,1.183-2.9,2.366-.442,4.733,2.019,1.656,5.364.71,7.809,3.313-1.341.71-16.075-2.13-9.386,3.313,1.783,1.42,7.367,2.6,9.607,2.13,3.8-1.183,5.143-4.954,9.844-4.48,3.344.473,5.585,3.076,8.929,3.076,1.783,0,8.945-1.183,9.607-1.893,3.581-3.3-1.341-4.023-1.562-6.137-.221-2.84,5.821-3.549,2.461-7.083"
          transform="translate(227.475 1311.395)" stroke="#f4faee" stroke-linecap="round"
          stroke-linejoin="round" stroke-miterlimit="10" stroke-width="1.5" />
        <path id="Path_1301" data-name="Path 1301"
          d="M180.89,80.259c-3.8.473-4.685,4.733-.221,4.733,4.023,0,5.805-5.679.9-4.733"
          transform="translate(243.69 1315.87)" stroke="#f4faee" stroke-linecap="round"
          stroke-linejoin="round" stroke-miterlimit="10" stroke-width="1.5" />
        <path id="Path_1302" data-name="Path 1302"
          d="M162.735,68.913c-4.464-.473-5.364-.237-8.708,2.13-3.581,2.366-7.825.947-11.169,3.313-4.685,3.076-1.12,6.137,3.344,5.427,2.9-.473,5.805-2.587,8.724-3.06a107.562,107.562,0,0,0,12.51-2.84c2.461-.71,6.925-.947,2.9-3.786-2.461-1.42-5.127.237-7.367-1.183"
          transform="translate(222.312 1309.263)" stroke="#f4faee" stroke-linecap="round"
          stroke-linejoin="round" stroke-miterlimit="10" stroke-width="1.5" />
      </g>
    </g>
    
  </svg>